<svg width="562" height="255" viewBox="0 0 562 255" fill="none" xmlns="http://www.w3.org/2000/svg">
<path d="M488.574 248.6C488.074 248.6 487.574 248.3 487.274 247.8C445.074 169.8 398.474 174.8 353.374 179.6C351.174 179.8 349.074 180.1 346.874 180.3C263.174 193.2 246.474 186 225.374 176.8C212.074 171 197.074 164.5 161.774 161.9C115.174 158.4 74.7745 181.9 49.2745 202.3C21.4745 224.4 4.57449 247.7 4.37449 247.9C3.87449 248.6 2.97449 248.7 2.27449 248.2C1.57449 247.7 1.47449 246.8 1.97449 246.1C2.17449 245.9 19.2745 222.3 47.3745 199.9C73.3745 179.2 114.374 155.2 161.974 158.8C197.774 161.5 213.074 168.1 226.574 174C247.274 183 263.574 190 346.474 177.2C348.674 177 350.874 176.7 352.974 176.5C375.774 174 399.274 171.5 422.374 179.6C448.474 188.7 470.474 210.5 489.774 246.2C490.174 246.9 489.875 247.8 489.174 248.2C488.974 248.6 488.775 248.6 488.574 248.6Z" fill="black"/>
<path d="M0.974433 238.5C0.774433 238.5 0.574433 238.4 0.374433 238.3C-0.0255667 238 -0.125567 237.3 0.174433 236.9C0.274433 236.7 15.0744 216.8 38.4744 196.9C60.0744 178.4 93.8744 156.1 131.574 154.5C132.174 154.5 132.574 154.9 132.574 155.5C132.574 156.1 132.174 156.5 131.574 156.5C94.3744 158.1 61.0744 180.2 39.6744 198.4C16.4744 218.2 1.97443 237.9 1.77443 238.1C1.57443 238.4 1.27443 238.5 0.974433 238.5Z" fill="black"/>
<path d="M319.074 118.3C319.074 142.7 299.374 162.4 274.974 162.4C250.574 162.4 230.874 142.7 230.874 118.3C230.874 93.9 250.574 74.2 274.974 74.2C299.274 74.2 319.074 93.9 319.074 118.3Z" fill="url(#paint0_linear)"/>
<path d="M318.074 109V191.6C318.074 191.6 270.774 229.6 233.574 185.5L241.274 146.8" fill="url(#paint1_linear)"/>
<path d="M275.774 163.9C253.774 163.9 240.374 149.6 239.874 149C239.274 148.4 239.374 147.4 239.974 146.9C240.574 146.3 241.574 146.4 242.074 147C242.174 147.1 255.174 160.9 275.774 160.9C293.874 160.9 306.874 144.5 306.974 144.3C307.474 143.6 308.474 143.5 309.074 144C309.774 144.5 309.874 145.5 309.374 146.1C308.874 146.9 295.374 163.9 275.774 163.9Z" fill="black"/>
<path d="M323.074 129.6C330.475 129.6 336.474 123.601 336.474 116.2C336.474 108.799 330.475 102.8 323.074 102.8C315.674 102.8 309.674 108.799 309.674 116.2C309.674 123.601 315.674 129.6 323.074 129.6Z" fill="url(#paint2_linear)"/>
<path d="M232.474 127.7C239.875 127.7 245.874 121.701 245.874 114.3C245.874 106.899 239.875 100.9 232.474 100.9C225.074 100.9 219.074 106.899 219.074 114.3C219.074 121.701 225.074 127.7 232.474 127.7Z" fill="url(#paint3_linear)"/>
<path d="M293.474 111.6C294.91 111.6 296.074 110.436 296.074 109C296.074 107.564 294.91 106.4 293.474 106.4C292.038 106.4 290.874 107.564 290.874 109C290.874 110.436 292.038 111.6 293.474 111.6Z" fill="black"/>
<path d="M253.174 107.1C253.174 108.6 251.974 109.7 250.574 109.7C249.074 109.7 247.974 108.5 247.974 107.1C247.974 105.6 249.174 104.5 250.574 104.5C251.974 104.4 253.174 105.6 253.174 107.1Z" fill="black"/>
<path d="M273.474 136.7C271.174 136.7 268.974 136.1 266.874 135.1C266.674 135 266.574 134.9 266.374 134.8C263.674 133.2 262.275 131.3 262.175 131.2C261.675 130.5 261.874 129.6 262.474 129.1C263.174 128.6 264.074 128.8 264.574 129.4C264.574 129.4 265.774 131 267.874 132.2C267.974 132.3 268.074 132.3 268.274 132.4C271.574 134.1 275.574 134.1 278.774 132.3L278.974 132.2C281.074 131 282.274 129.4 282.274 129.4C282.774 128.7 283.674 128.6 284.374 129.1C285.074 129.6 285.175 130.5 284.675 131.2C284.575 131.3 283.174 133.3 280.474 134.8C280.374 134.9 280.275 134.9 280.175 135C278.175 136.1 275.874 136.7 273.474 136.7Z" fill="black"/>
<path d="M224.974 41.9C224.974 41.9 220.674 104.4 316.874 104.4L318.074 88.9C308.174 41.9 272.774 41.7 224.974 41.9Z" fill="black"/>
<path d="M326.874 122.9C326.574 122.9 326.374 122.8 326.074 122.7L315.174 116.1L328.674 107.6C329.374 107.2 330.274 107.4 330.774 108.1C331.174 108.8 330.974 109.7 330.274 110.2L320.874 116.1L327.574 120.1C328.274 120.5 328.474 121.4 328.074 122.2C327.874 122.7 327.374 122.9 326.874 122.9Z" fill="black"/>
<path d="M93.0744 48.6H69.2744C68.4744 48.6 67.7744 47.9 67.7744 47.1C67.7744 46.3 68.4744 45.6 69.2744 45.6H93.0744C93.8744 45.6 94.5744 46.3 94.5744 47.1C94.5744 47.9 93.8744 48.6 93.0744 48.6Z" fill="black"/>
<path d="M137.974 48.6H102.874C102.074 48.6 101.374 47.9 101.374 47.1C101.374 46.3 102.074 45.6 102.874 45.6H137.974C138.774 45.6 139.474 46.3 139.474 47.1C139.474 47.9 138.774 48.6 137.974 48.6Z" fill="#ED1C24"/>
<path d="M122.874 72.2H58.6744C57.8744 72.2 57.1744 71.5 57.1744 70.7C57.1744 69.9 57.8744 69.2 58.6744 69.2H122.874C123.674 69.2 124.374 69.9 124.374 70.7C124.374 71.5 123.674 72.2 122.874 72.2Z" fill="black"/>
<path d="M148.474 72.2H131.574C130.774 72.2 130.074 71.5 130.074 70.7C130.074 69.9 130.774 69.2 131.574 69.2H148.474C149.274 69.2 149.974 69.9 149.974 70.7C149.974 71.5 149.374 72.2 148.474 72.2Z" fill="#ED1C24"/>
<path d="M79.0745 95.6H63.0745C62.2745 95.6 61.5745 94.9 61.5745 94.1C61.5745 93.3 62.2745 92.6 63.0745 92.6H79.0745C79.8745 92.6 80.5745 93.3 80.5745 94.1C80.5745 94.9 79.8745 95.6 79.0745 95.6Z" fill="#ED1C24"/>
<path d="M142.674 95.6H131.274C130.474 95.6 129.774 94.9 129.774 94.1C129.774 93.3 130.474 92.6 131.274 92.6H142.674C143.474 92.6 144.174 93.3 144.174 94.1C144.174 94.9 143.474 95.6 142.674 95.6Z" fill="black"/>
<path d="M121.274 95.6H88.4745C87.6745 95.6 86.9745 94.9 86.9745 94.1C86.9745 93.3 87.6745 92.6 88.4745 92.6H121.274C122.074 92.6 122.774 93.3 122.774 94.1C122.774 94.9 122.074 95.6 121.274 95.6Z" fill="black"/>
<path d="M232.474 131.5C231.974 131.5 231.374 131.2 231.174 130.7C223.374 115.6 232.774 100.8 233.174 100.1C233.674 99.4 234.574 99.2 235.274 99.7C235.974 100.2 236.174 101.1 235.674 101.8C235.574 101.9 226.774 115.8 233.774 129.4C234.174 130.1 233.874 131 233.174 131.4C232.874 131.4 232.674 131.5 232.474 131.5Z" fill="black"/>
<path d="M103.874 145C63.8744 145 31.2744 112.5 31.2744 72.5C31.2744 32.5 63.7744 0 103.874 0C143.874 0 176.374 32.5 176.374 72.5C176.374 78 175.774 83.6 174.474 88.9C174.274 89.7 173.474 90.2 172.674 90C171.874 89.8 171.374 89 171.574 88.2C172.774 83.1 173.374 77.8 173.374 72.4C173.374 34.1 142.174 2.9 103.874 2.9C65.4744 2.9 34.2744 34.1 34.2744 72.4C34.2744 110.7 65.4744 141.9 103.874 141.9C123.974 141.9 143.074 133.2 156.274 118.1C156.774 117.5 157.774 117.4 158.374 118C158.974 118.5 159.074 119.5 158.474 120.1C144.774 135.9 124.774 145 103.874 145Z" fill="black"/>
<path d="M214.774 123L157.274 120.7C156.474 120.7 155.774 120 155.874 119.1C155.974 118.2 156.574 117.6 157.474 117.7L206.474 119.6L172.174 89.7C171.574 89.2 171.474 88.2 172.074 87.6C172.574 87 173.574 86.9 174.174 87.5L214.774 123Z" fill="black"/>
<path d="M381.274 194.8C380.874 194.8 380.574 194.6 380.374 194.3L371.274 176.8C370.974 176.3 371.174 175.7 371.674 175.5C372.174 175.2 372.774 175.4 372.974 175.9L382.074 193.4C382.374 193.9 382.174 194.5 381.674 194.7C381.574 194.8 381.374 194.8 381.274 194.8Z" fill="black"/>
<path d="M112.974 205.9C112.874 205.9 112.674 205.9 112.574 205.8C112.074 205.6 111.874 205 112.074 204.5L120.774 186.8C120.974 186.3 121.574 186.1 122.074 186.3C122.574 186.5 122.774 187.1 122.574 187.6L113.874 205.3C113.674 205.7 113.374 205.9 112.974 205.9Z" fill="black"/>
<path d="M202.274 187.3C201.974 187.3 201.674 187.2 201.474 186.9L189.474 171.3C189.174 170.9 189.174 170.2 189.674 169.9C190.074 169.6 190.774 169.6 191.074 170.1L203.074 185.7C203.374 186.1 203.374 186.8 202.874 187.1C202.774 187.2 202.574 187.3 202.274 187.3Z" fill="black"/>
<path d="M227.374 231.2C227.174 231.2 226.974 231.2 226.874 231L210.174 220.5C209.674 220.2 209.574 219.6 209.874 219.1C210.174 218.6 210.774 218.5 211.274 218.8L227.974 229.3C228.474 229.6 228.574 230.2 228.274 230.7C228.074 231.1 227.774 231.2 227.374 231.2Z" fill="black"/>
<path d="M93.0744 245.7C92.8744 245.7 92.6744 245.7 92.5744 245.5L75.8744 235C75.3744 234.7 75.2744 234.1 75.5744 233.6C75.8744 233.1 76.4744 233 76.9744 233.3L93.5744 243.9C94.0744 244.2 94.1744 244.8 93.8744 245.3C93.6744 245.6 93.3744 245.7 93.0744 245.7Z" fill="black"/>
<path d="M322.874 243.9C322.574 243.9 322.174 243.7 321.974 243.4C321.674 242.9 321.874 242.3 322.374 242L339.474 232.2C339.974 231.9 340.574 232.1 340.874 232.6C341.174 233.1 340.974 233.7 340.474 234L323.374 243.8C323.274 243.9 323.074 243.9 322.874 243.9Z" fill="black"/>
<path d="M430.874 209.5C430.574 209.5 430.174 209.3 429.974 209C429.674 208.5 429.874 207.9 430.374 207.6L447.474 197.8C447.974 197.5 448.574 197.7 448.874 198.2C449.174 198.7 448.974 199.3 448.474 199.6L431.374 209.4C431.174 209.4 431.074 209.5 430.874 209.5Z" fill="black"/>
<path d="M426.374 254.1C425.974 254.1 425.574 253.8 425.374 253.4L419.774 234.5C419.574 234 419.874 233.4 420.474 233.3C420.974 233.1 421.574 233.4 421.674 234L427.274 252.9C427.474 253.4 427.174 254 426.574 254.1C426.574 254.1 426.474 254.1 426.374 254.1Z" fill="black"/>
<path d="M471.474 137C469.574 157.5 451.374 172.5 430.874 170.6C410.374 168.7 395.374 150.5 397.274 130C399.174 109.5 417.374 94.5 437.874 96.4C458.374 98.4 473.374 116.5 471.474 137Z" fill="url(#paint4_linear)"/>
<path d="M539.474 205.4L451.974 165.3L453.174 162.6L540.674 202.7L539.474 205.4Z" fill="url(#paint5_linear)"/>
<path d="M552.374 177.5L469.574 135.6L470.974 132.9L553.774 174.8L552.374 177.5Z" fill="url(#paint6_linear)"/>
<path d="M544.174 206.1C542.674 206.1 541.174 205.9 539.674 205.5C530.574 203 525.174 193.6 527.574 184.5C530.074 175.4 539.474 170 548.574 172.4C557.674 174.9 563.074 184.3 560.674 193.4C558.674 201.1 551.674 206.1 544.174 206.1ZM544.174 174.8C537.974 174.8 532.274 178.9 530.574 185.2C528.574 192.7 532.974 200.5 540.474 202.5C547.974 204.5 555.774 200.1 557.774 192.6C559.774 185.1 555.374 177.3 547.874 175.3C546.674 175 545.374 174.8 544.174 174.8Z" fill="url(#paint7_linear)"/>
<path d="M466.674 148C466.474 148 466.274 147.9 466.074 147.8L411.374 108.7C410.974 108.4 410.774 107.8 411.174 107.3C411.474 106.9 412.074 106.7 412.574 107.1L467.274 146.2C467.674 146.5 467.874 147.1 467.474 147.6C467.274 147.8 466.974 148 466.674 148Z" fill="black"/>
<path d="M469.774 132.6C469.574 132.6 469.374 132.5 469.174 132.4L419.974 99.2001C419.474 98.9001 419.374 98.3001 419.674 97.8001C419.974 97.3001 420.574 97.2 421.074 97.5L470.274 130.7C470.774 131 470.874 131.6 470.574 132.1C470.374 132.4 470.074 132.6 469.774 132.6Z" fill="black"/>
<path d="M457.174 159.1C456.974 159.1 456.774 159 456.574 158.9L402.874 119.7C402.474 119.4 402.374 118.7 402.674 118.3C402.974 117.9 403.674 117.8 404.074 118.1L457.774 157.3C458.174 157.6 458.274 158.3 457.974 158.7C457.774 159 457.474 159.1 457.174 159.1Z" fill="black"/>
<path d="M448.474 170.5C448.274 170.5 448.074 170.4 447.874 170.3L394.974 132.3C394.574 132 394.374 131.4 394.774 130.9C395.074 130.5 395.674 130.3 396.174 130.7L449.074 168.7C449.474 169 449.674 169.6 449.274 170.1C449.074 170.4 448.774 170.5 448.474 170.5Z" fill="black"/>
<path d="M397.674 146.9C397.374 146.9 397.174 146.8 396.974 146.6C396.574 146.2 396.574 145.6 396.974 145.2L443.674 99.9C444.074 99.5 444.674 99.5 445.074 99.9C445.474 100.3 445.474 100.9 445.074 101.3L398.374 146.6C398.174 146.8 397.974 146.9 397.674 146.9Z" fill="black"/>
<path d="M406.874 159.2C406.574 159.2 406.375 159.1 406.175 158.9C405.775 158.5 405.775 157.9 406.175 157.5L461.374 105.4C461.774 105 462.374 105 462.774 105.4C463.174 105.8 463.174 106.4 462.774 106.8L407.575 158.9C407.375 159.1 407.174 159.2 406.874 159.2Z" fill="black"/>
<path d="M419.374 169.1C419.074 169.1 418.875 169 418.675 168.8C418.275 168.4 418.275 167.8 418.675 167.4L468.974 119.1C469.375 118.7 469.974 118.7 470.374 119.1C470.774 119.5 470.774 120.1 470.374 120.5L420.075 168.8C419.875 169 419.574 169.1 419.374 169.1Z" fill="black"/>
<path d="M502.474 252.1C502.374 252.1 502.374 252.1 502.474 252.1C501.574 252.1 500.974 251.4 500.974 250.6L504.374 141.2C504.374 140.4 505.074 139.7 505.874 139.7C506.674 139.7 507.374 140.4 507.374 141.2L503.974 250.7C503.874 251.5 503.274 252.1 502.474 252.1Z" fill="black"/>
<path d="M250.574 121C242.474 121 235.874 114.4 235.874 106.3C235.874 98.2 242.474 91.6 250.574 91.6C258.674 91.6 265.274 98.2 265.274 106.3C265.274 114.4 258.674 121 250.574 121ZM250.574 93.6C243.574 93.6 237.874 99.3 237.874 106.3C237.874 113.3 243.574 119 250.574 119C257.574 119 263.274 113.3 263.274 106.3C263.274 99.3 257.574 93.6 250.574 93.6Z" fill="white"/>
<path d="M293.474 122.5C285.374 122.5 278.774 115.9 278.774 107.8C278.774 99.7 285.374 93.1 293.474 93.1C301.574 93.1 308.174 99.7 308.174 107.8C308.174 115.9 301.574 122.5 293.474 122.5ZM293.474 95.2C286.474 95.2 280.774 100.9 280.774 107.9C280.774 114.9 286.474 120.6 293.474 120.6C300.474 120.6 306.174 114.9 306.174 107.9C306.174 100.9 300.474 95.2 293.474 95.2Z" fill="white"/>
<path d="M273.874 122.9H260.974C258.074 122.9 255.774 120.4 255.774 117.4V116.7L272.874 102.4C273.474 101.9 274.474 102 274.974 102.6C275.474 103.2 275.374 104.2 274.774 104.7L258.874 118C259.074 119.1 259.974 119.9 260.974 119.9H273.774C274.574 119.9 275.274 120.6 275.274 121.4C275.274 122.2 274.674 122.9 273.874 122.9Z" fill="black"/>
<path d="M280.474 104.6H263.974C263.374 104.6 262.974 104.2 262.974 103.6C262.974 103 263.374 102.6 263.974 102.6H280.474C281.074 102.6 281.474 103 281.474 103.6C281.474 104.2 281.074 104.6 280.474 104.6Z" fill="white"/>
<path d="M251.774 79.8C251.574 79.8 251.474 79.8 251.274 79.7001C235.374 71.1 232.074 59.4 230.974 47.9C230.874 47.4 231.274 46.9 231.874 46.8C232.474 46.8 232.874 47.1 232.974 47.7C234.074 58.6 237.174 69.8 252.274 77.9C252.774 78.2 252.974 78.8 252.674 79.3C252.474 79.7001 252.074 79.8 251.774 79.8Z" fill="white"/>
<defs>
<linearGradient id="paint0_linear" x1="230.857" y1="118.275" x2="319.048" y2="118.275" gradientUnits="userSpaceOnUse">
<stop stop-color="#DE3129"/>
<stop offset="1" stop-color="#DE2F39"/>
</linearGradient>
<linearGradient id="paint1_linear" x1="233.541" y1="157.829" x2="318.058" y2="157.829" gradientUnits="userSpaceOnUse">
<stop stop-color="#DE3129"/>
<stop offset="1" stop-color="#DE2F39"/>
</linearGradient>
<linearGradient id="paint2_linear" x1="309.744" y1="116.245" x2="336.493" y2="116.245" gradientUnits="userSpaceOnUse">
<stop stop-color="#DE3129"/>
<stop offset="1" stop-color="#DE2F39"/>
</linearGradient>
<linearGradient id="paint3_linear" x1="219.062" y1="114.315" x2="245.811" y2="114.315" gradientUnits="userSpaceOnUse">
<stop stop-color="#DE3129"/>
<stop offset="1" stop-color="#DE2F39"/>
</linearGradient>
<linearGradient id="paint4_linear" x1="397.139" y1="133.513" x2="471.647" y2="133.513" gradientUnits="userSpaceOnUse">
<stop stop-color="#DE3129"/>
<stop offset="1" stop-color="#DE2F39"/>
</linearGradient>
<linearGradient id="paint5_linear" x1="450.593" y1="179.688" x2="542.078" y2="188.325" gradientUnits="userSpaceOnUse">
<stop stop-color="#DE3129"/>
<stop offset="1" stop-color="#DE2F39"/>
</linearGradient>
<linearGradient id="paint6_linear" x1="468.123" y1="151.084" x2="555.233" y2="159.309" gradientUnits="userSpaceOnUse">
<stop stop-color="#DE3129"/>
<stop offset="1" stop-color="#DE2F39"/>
</linearGradient>
<linearGradient id="paint7_linear" x1="527.127" y1="187.361" x2="561.236" y2="190.582" gradientUnits="userSpaceOnUse">
<stop stop-color="#DE3129"/>
<stop offset="1" stop-color="#DE2F39"/>
</linearGradient>
</defs>
</svg>
