<svg width="834" height="268" viewBox="0 0 834 268" fill="none" xmlns="http://www.w3.org/2000/svg">
<path d="M134.541 104.3C134.541 104.3 170.841 123 221.141 96.5C221.141 96.5 209.941 72.5 162.041 71.6C98.1409 70.2 -3.05906 184.7 71.5409 238.8C98.4409 258.3 178.541 235.7 133.141 148.9L125.141 132.4C126.541 119.6 129.241 112.4 134.541 104.3Z" fill="url(#paint0_linear)"/>
<path d="M827.341 250.8C826.741 250.8 826.041 250.4 825.741 249.8C789.541 176.6 749.641 181.3 710.941 185.8C709.041 186 707.241 186.2 705.341 186.4C641.741 197.2 608.841 184.3 582.441 174C556.941 164.1 536.841 156.2 499.141 171.4C498.241 171.8 497.241 171.3 496.841 170.4C496.441 169.5 496.941 168.5 497.841 168.1C536.841 152.4 558.541 160.9 583.741 170.7C611.141 181.4 642.141 193.5 704.841 182.9C706.741 182.7 708.641 182.5 710.541 182.2C750.441 177.5 791.641 172.7 828.841 248.1C829.241 249 828.941 250 828.041 250.4C827.841 250.7 827.541 250.8 827.341 250.8Z" fill="black"/>
<path d="M831.941 241.2C831.541 241.2 831.241 241 831.041 240.7C791.641 168.4 751.341 173.1 712.441 177.6C710.741 177.8 709.141 178 707.441 178.2C657.541 186.6 627.741 180.4 607.441 174C606.941 173.8 606.641 173.3 606.741 172.7C606.841 172.1 607.441 171.9 608.041 172C628.141 178.3 657.641 184.5 707.241 176.1C708.941 175.9 710.641 175.7 712.341 175.5C751.941 170.9 792.841 166.1 832.941 239.6C833.241 240.1 833.041 240.7 832.541 241C832.241 241.1 832.141 241.2 831.941 241.2Z" fill="black"/>
<path d="M603.041 124.4C603.041 146.5 621.641 164.4 644.641 164.4C667.641 164.4 686.241 146.5 686.241 124.4C686.241 102.3 667.641 84.3999 644.641 84.3999C621.641 84.4999 603.041 102.4 603.041 124.4Z" fill="url(#paint1_linear)"/>
<path d="M603.941 116V190.8C603.941 190.8 648.541 225.2 683.641 185.2L676.441 150.1" fill="url(#paint2_linear)"/>
<path d="M643.341 166.1C624.941 166.1 612.341 150.6 611.841 149.9C611.241 149.1 611.341 148 612.141 147.4C612.941 146.8 614.041 146.9 614.641 147.7C614.741 147.9 626.941 162.8 643.841 162.6C660.941 162.3 675.441 150.1 675.641 150C676.341 149.4 677.441 149.5 678.141 150.2C678.741 150.9 678.641 152 677.941 152.7C677.341 153.2 662.341 165.9 643.941 166.2C643.641 166.1 643.541 166.1 643.341 166.1Z" fill="black"/>
<path d="M586.541 122.6C586.541 129.3 592.141 134.7 599.141 134.7C606.141 134.7 611.741 129.3 611.741 122.6C611.741 115.9 606.141 110.5 599.141 110.5C592.241 110.5 586.541 115.9 586.541 122.6Z" fill="url(#paint3_linear)"/>
<path d="M684.741 132.9C691.7 132.9 697.341 127.483 697.341 120.8C697.341 114.117 691.7 108.7 684.741 108.7C677.782 108.7 672.141 114.117 672.141 120.8C672.141 127.483 677.782 132.9 684.741 132.9Z" fill="url(#paint4_linear)"/>
<path d="M624.841 116C624.841 117.4 626.041 118.5 627.441 118.5C628.841 118.5 630.041 117.4 630.041 116C630.041 114.6 628.841 113.5 627.441 113.5C626.041 113.6 624.841 114.7 624.841 116Z" fill="black"/>
<path d="M668.141 116C668.141 117.4 669.341 118.5 670.741 118.5C672.141 118.5 673.341 117.4 673.341 116C673.341 114.6 672.141 113.5 670.741 113.5C669.241 113.5 668.141 114.6 668.141 116Z" fill="black"/>
<path d="M385.441 91.5C385.441 92.9 386.541 94 388.041 94C389.441 94 390.641 92.9 390.641 91.5C390.641 90.1 389.541 89 388.041 89C386.641 89 385.441 90.1 385.441 91.5Z" fill="black"/>
<path d="M432.041 91.5C432.041 92.9 433.141 94 434.641 94C436.041 94 437.241 92.9 437.241 91.5C437.241 90.1 436.141 89 434.641 89C433.141 89 432.041 90.1 432.041 91.5Z" fill="black"/>
<path d="M144.741 118.4C144.741 119.8 145.841 120.9 147.341 120.9C148.741 120.9 149.941 119.8 149.941 118.4C149.941 117 148.841 115.9 147.341 115.9C145.841 116 144.741 117.1 144.741 118.4Z" fill="black"/>
<path d="M406.841 204.5C406.841 205.9 407.941 207 409.441 207C410.841 207 412.041 205.9 412.041 204.5C412.041 203.1 410.941 202 409.441 202C407.941 202 406.841 203.1 406.841 204.5Z" fill="black"/>
<path d="M406.841 231.4C406.841 232.8 407.941 233.9 409.441 233.9C410.841 233.9 412.041 232.8 412.041 231.4C412.041 230 410.941 228.9 409.441 228.9C407.941 228.9 406.841 230 406.841 231.4Z" fill="black"/>
<path d="M189.041 118.4C189.041 119.8 190.141 120.9 191.641 120.9C193.041 120.9 194.241 119.8 194.241 118.4C194.241 117 193.141 115.9 191.641 115.9C190.141 116 189.041 117.1 189.041 118.4Z" fill="black"/>
<path d="M595.641 129.1C595.041 129.1 594.441 128.8 594.141 128.2C593.641 127.4 593.941 126.3 594.741 125.8L600.441 122.5L592.141 117.5C591.341 117 591.041 115.9 591.541 115.1C592.041 114.3 593.141 114 593.941 114.5L607.241 122.5L596.341 128.8C596.241 129 595.941 129.1 595.641 129.1Z" fill="black"/>
<path d="M608.841 267.4C608.041 267.4 607.341 266.9 607.141 266.1C607.141 266 603.341 251.7 590.841 234C579.341 217.6 558.041 194.8 521.441 179.1C506.041 172.5 484.941 168 458.841 165.7C457.841 165.6 457.141 164.8 457.241 163.8C457.341 162.8 458.141 162.1 459.141 162.2C485.641 164.5 507.041 169.1 522.841 175.9C560.341 192 582.141 215.3 593.841 232.1C606.541 250.3 610.341 264.6 610.541 265.2C610.741 266.1 610.241 267.1 609.241 267.3C609.141 267.4 609.041 267.4 608.841 267.4Z" fill="black"/>
<path d="M216.241 260.5C216.041 260.5 215.841 260.5 215.641 260.4C214.741 260.1 214.241 259.1 214.541 258.2C214.741 257.7 232.641 209.1 287.641 178.8C309.341 166.8 339.341 162.5 360.741 161.1C361.741 161 362.541 161.8 362.641 162.7C362.741 163.6 361.941 164.5 361.041 164.6C340.041 166.1 310.641 170.3 289.441 181.9C235.641 211.5 218.141 258.9 217.941 259.4C217.641 260.1 216.941 260.5 216.241 260.5Z" fill="black"/>
<path d="M684.741 136.8C684.441 136.8 684.141 136.7 683.941 136.6C683.041 136.1 682.741 135.1 683.241 134.2C689.741 122.2 681.541 109.8 681.441 109.7C680.941 108.9 681.141 107.8 681.941 107.3C682.741 106.8 683.841 107 684.341 107.8C684.741 108.4 693.741 122 686.241 136C685.941 136.5 685.341 136.8 684.741 136.8Z" fill="black"/>
<path d="M605.641 112.2C605.241 112.2 604.941 112.1 604.541 111.8C603.541 111.1 581.141 93.9 583.041 79.3C583.741 73.6 587.941 69.2 595.341 66.1C604.441 62.4 609.641 54.2 614.641 46.4C621.741 35.3 629.141 23.8 647.141 27.9C662.241 31.4 660.841 41.2 659.841 48.4C659.341 52.3 658.841 55.6 660.541 57.4C662.541 59.4 667.841 59.8 676.241 58.6C687.341 57 694.941 58.6 698.941 63.4C705.441 71.3 700.541 85.4 697.541 93.8C696.741 96 696.141 97.9 695.941 98.9C694.441 107.2 683.541 110.3 683.141 110.4C682.241 110.7 681.241 110.1 680.941 109.2C680.641 108.3 681.241 107.3 682.141 107C682.241 107 691.341 104.4 692.441 98.2C692.641 96.9 693.341 95 694.241 92.6C696.941 84.9 701.441 72 696.241 65.6C693.041 61.8 686.541 60.6 676.741 62C666.741 63.5 661.041 62.8 658.041 59.9C655.041 56.9 655.641 52.4 656.341 48C657.341 40.9 658.341 34.1 646.341 31.4C630.741 27.8 624.641 37.3 617.541 48.4C612.241 56.7 606.741 65.3 596.641 69.5C590.441 72.1 587.041 75.6 586.441 79.9C585.741 85 589.041 91.7 595.741 99.1C600.941 104.9 606.541 109.1 606.541 109.1C607.341 109.7 607.441 110.8 606.841 111.6C606.741 112 606.141 112.2 605.641 112.2Z" fill="black"/>
<path d="M650.741 140.5C644.541 140.5 639.841 136 639.741 136C639.341 135.6 639.341 135 639.741 134.6C640.141 134.2 640.741 134.2 641.141 134.6C641.541 135 650.641 143.5 659.841 134.3C660.241 133.9 660.841 133.9 661.241 134.3C661.641 134.7 661.641 135.3 661.241 135.7C657.641 139.3 653.941 140.5 650.741 140.5Z" fill="black"/>
<path d="M670.741 128.7C663.441 128.7 657.541 123 657.541 116C657.541 109 663.441 103.3 670.741 103.3C678.041 103.3 683.941 109 683.941 116C683.941 123 677.941 128.7 670.741 128.7ZM670.741 105.3C664.541 105.3 659.541 110.1 659.541 116C659.541 121.9 664.541 126.7 670.741 126.7C676.941 126.7 681.941 121.9 681.941 116C681.941 110.1 676.841 105.3 670.741 105.3Z" fill="white"/>
<path d="M627.441 129.1C620.141 129.1 614.241 123.4 614.241 116.4C614.241 109.4 620.141 103.7 627.441 103.7C634.741 103.7 640.641 109.4 640.641 116.4C640.541 123.4 634.641 129.1 627.441 129.1ZM627.441 105.8C621.241 105.8 616.241 110.6 616.241 116.5C616.241 122.4 621.241 127.2 627.441 127.2C633.641 127.2 638.641 122.4 638.641 116.5C638.541 110.5 633.541 105.8 627.441 105.8Z" fill="white"/>
<path d="M658.241 129.1H645.441C644.441 129.1 643.641 128.3 643.641 127.3C643.641 126.3 644.441 125.5 645.441 125.5H658.241C659.041 125.5 659.741 125 660.041 124.3L644.341 112.4C643.541 111.8 643.441 110.7 644.041 109.9C644.641 109.1 645.741 109 646.541 109.6L663.841 122.7V123.6C663.741 126.6 661.241 129.1 658.241 129.1Z" fill="black"/>
<path d="M600.171 109.462L599.622 111.386L614.913 115.747L615.462 113.824L600.171 109.462Z" fill="white"/>
<path d="M660.541 108.6H636.741V110.6H660.541V108.6Z" fill="white"/>
<path d="M173.541 208.3C158.741 208.3 143.441 201.7 127.841 188.6L127.141 188L130.941 148.6C127.041 142.2 125.041 135 125.041 127.6C125.041 104.6 144.441 85.8999 168.341 85.8999C192.241 85.8999 211.641 104.6 211.641 127.6C211.641 133.3 210.441 138.7 208.341 143.7L213.741 188.4L213.341 189C212.841 189.7 200.741 205.6 179.241 208C177.341 208.2 175.441 208.3 173.541 208.3ZM130.841 186.5C147.441 200.2 163.541 206.2 178.741 204.5C196.641 202.4 207.841 190.1 210.041 187.4L205.441 149.2C197.841 161.3 184.041 169.4 168.341 169.4C162.241 169.4 156.341 168.2 150.841 165.8C149.941 165.4 149.541 164.4 149.941 163.5C150.341 162.6 151.341 162.2 152.241 162.6C157.341 164.8 162.741 165.9 168.441 165.9C190.441 165.9 208.241 148.8 208.241 127.7C208.241 106.6 190.341 89.4999 168.441 89.4999C146.541 89.4999 128.641 106.6 128.641 127.7C128.641 134.7 130.641 141.5 134.341 147.4L134.641 147.9L130.841 186.5Z" fill="black"/>
<path d="M170.641 144.4C168.041 144.4 165.141 143.6 162.041 141.3C161.641 141 161.541 140.3 161.841 139.9C162.141 139.5 162.841 139.4 163.241 139.7C171.341 145.9 178.241 139.7 178.441 139.4C178.841 139 179.441 139 179.841 139.4C180.241 139.8 180.241 140.4 179.841 140.8C179.841 140.9 176.041 144.4 170.641 144.4Z" fill="#ED1C24"/>
<path d="M176.741 132.9H165.541C164.541 132.9 163.741 132.1 163.741 131.1C163.741 130.1 164.541 129.3 165.541 129.3H176.741C177.741 129.3 178.641 128.6 178.741 127.7L172.441 115.5C172.041 114.6 172.341 113.6 173.241 113.1C174.141 112.7 175.141 113 175.641 113.9L182.341 127V127.4C182.341 130.5 179.841 132.9 176.741 132.9Z" fill="black"/>
<path d="M418.241 109.4H403.941C402.141 109.4 399.841 108.3 398.841 106.2C398.341 105.1 397.741 102.8 400.141 99.9L400.241 99.8C403.341 96.5 410.641 86.6 410.541 81.5C410.541 80.5 411.341 79.7 412.241 79.7C413.241 79.7 414.041 80.5 414.041 81.4C414.141 88.4 405.141 99.6 402.841 102.1C402.241 102.8 401.641 103.8 402.041 104.6C402.441 105.4 403.441 105.8 403.941 105.8H418.341C419.341 105.8 420.141 106.6 420.141 107.6C420.141 108.6 419.241 109.4 418.241 109.4Z" fill="#ED1C24"/>
<path d="M4.64096 252.6C4.34096 252.6 4.14096 252.5 3.84096 252.4C2.94096 252 2.64096 250.9 3.04096 250C40.641 174.6 82.241 179.4 122.441 184.1C124.341 184.3 126.141 184.5 128.041 184.7C195.441 196 222.541 184.1 246.441 173.7C266.341 165 283.441 157.5 318.641 166.5C319.541 166.7 320.141 167.7 319.941 168.6C319.741 169.5 318.741 170.1 317.841 169.9C283.841 161.2 267.141 168.5 247.941 176.9C231.341 184.2 211.741 192.7 176.741 192.7C163.041 192.7 146.941 191.4 127.641 188.2C125.841 188 123.941 187.8 122.141 187.6C83.141 183 42.841 178.3 6.34096 251.6C5.84096 252.2 5.24096 252.6 4.64096 252.6Z" fill="black"/>
<path d="M0.940954 242.4C0.840954 242.4 0.640954 242.4 0.540954 242.3C0.040954 242.1 -0.159046 241.5 0.140954 241C9.64095 222 19.541 206.5 36.941 193.1C37.341 192.8 38.041 192.8 38.341 193.3C38.641 193.7 38.641 194.4 38.141 194.7C20.941 207.8 11.241 223.1 1.84095 241.8C1.64095 242.2 1.34095 242.4 0.940954 242.4Z" fill="black"/>
<path d="M217.341 177.8C217.041 177.8 216.841 177.8 216.541 177.8C215.941 177.8 215.541 177.3 215.541 176.8C215.541 176.3 216.041 175.8 216.541 175.8C228.441 176 236.941 171.7 246.041 167.2C262.041 159.2 280.241 150.2 322.241 161.3C322.741 161.4 323.141 162 322.941 162.5C322.841 163 322.241 163.4 321.741 163.2C280.441 152.3 262.641 161.1 246.941 169C237.841 173.5 229.241 177.8 217.341 177.8Z" fill="black"/>
<path d="M410.441 120.5C408.941 120.5 407.641 120.3 406.441 119.9C402.941 118.9 400.741 116.8 400.641 116.7C400.241 116.3 400.241 115.7 400.641 115.3C401.041 114.9 401.641 114.9 402.041 115.3C402.341 115.6 409.941 122.4 418.941 115.3C419.341 115 420.041 115 420.341 115.5C420.641 115.9 420.641 116.6 420.141 116.9C416.641 119.6 413.241 120.5 410.441 120.5Z" fill="black"/>
<path d="M417.541 42.3H351.841C351.841 42.3 358.841 67.3 371.841 74.7C394.841 88 432.841 87.2 459.841 74.7C459.841 74.7 452.541 42.3 415.841 42.3C381.941 42.3 371.841 74.7 371.841 74.7" fill="black"/>
<path d="M412.341 182.9C411.441 182.9 410.541 182.9 409.641 182.8C395.041 182.2 380.141 176.7 359.841 164.3L358.841 163.7L368.941 113.3L372.341 114L362.741 162C400.241 184.5 423.341 185.1 456.441 164.1L451.541 115.4L455.041 115.1L460.141 166L459.241 166.6C441.641 177.7 427.041 182.9 412.341 182.9Z" fill="black"/>
<path d="M377.741 129.4C373.941 125.2 371.141 120.4 369.241 115.1C369.141 114.8 369.041 114.5 368.941 114.2L372.241 113.1C372.341 113.4 372.441 113.7 372.541 113.9C374.241 118.7 376.841 123.1 380.341 127L377.741 129.4Z" fill="black"/>
<path d="M412.341 144.7C399.041 144.7 386.441 139.1 377.841 129.4L380.441 127.1C388.441 136.1 400.041 141.2 412.341 141.2C423.941 141.2 434.741 136.7 442.741 128.7C447.141 124.2 450.441 118.8 452.341 113C453.541 109.2 454.241 105.1 454.241 101.1C454.241 78.9 435.441 60.9 412.341 60.9C389.241 60.9 370.441 78.9 370.441 101.1C370.441 105.2 371.041 109.3 372.341 113.2L369.041 114.3C367.641 110.1 366.941 105.6 366.941 101.1C366.941 77 387.341 57.4 412.341 57.4C437.341 57.4 457.741 77 457.741 101.1C457.741 105.5 457.041 109.9 455.741 114.1C453.641 120.4 450.041 126.4 445.341 131.2C436.541 139.9 424.841 144.7 412.341 144.7Z" fill="black"/>
<path d="M123.941 133.7C119.041 133.7 115.341 131.1 113.741 128C111.841 124.4 112.641 120.3 115.741 117.4C117.641 115.6 120.241 115 122.941 115.6C125.641 116.2 128.241 118.1 129.041 120L125.741 121.3C125.541 120.7 124.141 119.4 122.141 119C121.041 118.7 119.441 118.7 118.041 120C116.041 121.8 115.541 124.2 116.741 126.4C118.041 128.9 121.541 131 126.341 130L127.141 133.4C126.041 133.6 124.941 133.7 123.941 133.7Z" fill="black"/>
<path d="M211.841 131.7C210.941 131.7 210.141 131.6 209.241 131.4L210.041 128C215.041 129.1 218.441 125.7 219.241 123C219.541 121.9 219.941 119.3 216.941 118.1C213.341 116.7 210.141 119.6 210.041 119.6L207.741 117C207.941 116.8 212.641 112.7 218.141 114.8C222.041 116.3 223.841 119.9 222.641 124C221.341 128.1 217.141 131.7 211.841 131.7Z" fill="black"/>
<path d="M457.141 103.1C456.241 103.1 455.441 103 454.541 102.8L455.341 99.3999C460.341 100.5 463.741 97.0999 464.541 94.3999C464.841 93.2999 465.241 90.6999 462.241 89.4999C458.641 88.1999 455.541 90.8999 455.341 90.9999L453.041 88.3999C453.241 88.1999 457.941 84.0999 463.441 86.1999C467.341 87.6999 469.141 91.2999 467.941 95.3999C466.541 99.4999 462.441 103.1 457.141 103.1Z" fill="black"/>
<path d="M366.841 102.7C361.541 102.7 357.441 99.1 356.141 95C354.941 91 356.741 87.3 360.641 85.8C366.241 83.7 370.841 87.8 371.041 88L368.741 90.6C368.641 90.5 365.441 87.8 361.841 89.1C358.741 90.3 359.141 92.9 359.541 94C360.341 96.8 363.741 100.1 368.741 99L369.541 102.4C368.541 102.6 367.641 102.7 366.841 102.7Z" fill="black"/>
<path d="M438.641 60.8L386.441 60.3V13.5L401.741 32.2L412.541 0L421.641 32.2L438.741 13.3V60.8H438.641ZM389.941 56.9L435.141 57.3V22.4L419.941 39.2L412.241 11.9L403.141 39.4L389.941 23.3V56.9Z" fill="#ED1C24"/>
<path d="M72.8409 135.1C72.6409 135.1 72.5409 135.1 72.3409 135C71.8409 134.7 71.6409 134.1 71.9409 133.6C79.0409 120.4 93.7409 108.9 94.4409 108.4C94.8409 108.1 95.5409 108.1 95.8409 108.6C96.1409 109 96.1409 109.7 95.6409 110C95.5409 110.1 80.5409 121.7 73.7409 134.6C73.5409 134.9 73.2409 135.1 72.8409 135.1Z" fill="white"/>
<path d="M100.441 105.8C100.241 105.8 100.041 105.7 99.8409 105.6C99.3409 105.3 99.2409 104.7 99.5409 104.2C102.841 99.5001 115.041 92.1001 115.541 91.7001C116.041 91.4001 116.641 91.6001 116.941 92.0001C117.241 92.5001 117.041 93.1001 116.641 93.4001C116.541 93.5001 104.241 100.9 101.241 105.3C101.041 105.6 100.741 105.8 100.441 105.8Z" fill="white"/>
<path d="M221.641 138.2C221.641 140.8 219.441 142.9 216.741 142.9C214.041 142.9 211.841 140.8 211.841 138.2C211.841 135.6 214.041 133.5 216.741 133.5C219.441 133.5 221.641 135.6 221.641 138.2Z" fill="black"/>
<path d="M125.741 139.8C125.741 142.4 123.541 144.5 120.841 144.5C118.141 144.5 115.941 142.4 115.941 139.8C115.941 137.2 118.141 135.1 120.841 135.1C123.641 135.1 125.741 137.2 125.741 139.8Z" fill="black"/>
<path d="M594.941 90.9999C594.641 90.9999 594.341 90.8999 594.141 90.5999C593.841 90.1999 587.441 81.4 592.541 76.8C597.141 72.7 602.541 70.9 602.741 70.8C603.241 70.6 603.841 70.8999 604.041 71.3999C604.241 71.8999 603.941 72.4999 603.441 72.6999C603.341 72.6999 598.141 74.5 593.941 78.3C590.241 81.7 595.741 89.2999 595.841 89.4C596.141 89.7999 596.041 90.5 595.641 90.8C595.341 90.9 595.141 90.9999 594.941 90.9999Z" fill="black"/>
<path d="M468.741 205.4L409.341 184.5L350.641 203.7L359.141 163.7C359.341 162.8 360.241 162.1 361.241 162.4C362.141 162.6 362.741 163.5 362.541 164.5L355.341 198.5L409.441 180.8L464.141 200.1L457.341 166.6C457.141 165.7 457.741 164.7 458.741 164.5C459.641 164.3 460.641 164.9 460.841 165.9L468.741 205.4Z" fill="black"/>
<path d="M694.541 77.7001C693.941 77.7001 693.541 77.2001 693.541 76.7001C693.541 75.0001 693.141 70.1001 691.041 68.3001C688.941 66.4001 682.941 67.2001 680.841 67.6001C680.341 67.7001 679.741 67.4001 679.641 66.8001C679.541 66.3001 679.841 65.7001 680.441 65.6001C681.341 65.4001 689.241 63.9001 692.341 66.8001C695.541 69.7001 695.441 76.5001 695.441 76.8001C695.541 77.3001 695.141 77.7001 694.541 77.7001Z" fill="black"/>
<path d="M94.141 239.5C93.341 239.5 92.541 239.5 91.741 239.4C74.841 238.5 61.241 223.7 60.741 223C60.341 222.6 60.441 222 60.841 221.6C61.241 221.2 61.841 221.3 62.241 221.7C62.341 221.8 75.841 236.6 91.841 237.4C109.341 238.3 122.041 228.3 122.141 228.2C122.541 227.9 123.241 227.9 123.541 228.4C123.841 228.8 123.841 229.5 123.341 229.8C122.841 230.1 111.041 239.5 94.141 239.5Z" fill="white"/>
<path d="M58.441 218C58.141 218 57.841 217.9 57.641 217.6C53.741 213 52.341 205.5 52.241 205.2C52.141 204.7 52.541 204.1 53.041 204C53.541 203.9 54.141 204.3 54.241 204.8C54.241 204.9 55.641 212 59.141 216.3C59.541 216.7 59.441 217.4 59.041 217.7C58.841 217.9 58.641 218 58.441 218Z" fill="white"/>
<path d="M380.041 71.8C379.841 71.8 379.641 71.8 379.541 71.6C369.741 65.5 366.141 53.1 365.941 52.5C365.841 52 366.141 51.4 366.641 51.3C367.141 51.2 367.741 51.5 367.841 52C367.841 52.1 371.341 64.2 380.541 69.9C381.041 70.2 381.141 70.8 380.841 71.3C380.741 71.7 380.441 71.8 380.041 71.8Z" fill="white"/>
<path d="M459.841 74.8L462.741 86.4L452.441 88.5L445.441 75.7L459.841 74.8Z" fill="black"/>
<defs>
<linearGradient id="paint0_linear" x1="45.2352" y1="158.419" x2="221.176" y2="158.419" gradientUnits="userSpaceOnUse">
<stop stop-color="#DE3129"/>
<stop offset="1" stop-color="#DE2F39"/>
</linearGradient>
<linearGradient id="paint1_linear" x1="603.031" y1="124.436" x2="686.194" y2="124.436" gradientUnits="userSpaceOnUse">
<stop stop-color="#DE3129"/>
<stop offset="1" stop-color="#DE2F39"/>
</linearGradient>
<linearGradient id="paint2_linear" x1="603.965" y1="160.289" x2="683.664" y2="160.289" gradientUnits="userSpaceOnUse">
<stop stop-color="#DE3129"/>
<stop offset="1" stop-color="#DE2F39"/>
</linearGradient>
<linearGradient id="paint3_linear" x1="586.58" y1="122.596" x2="611.806" y2="122.596" gradientUnits="userSpaceOnUse">
<stop stop-color="#DE3129"/>
<stop offset="1" stop-color="#DE2F39"/>
</linearGradient>
<linearGradient id="paint4_linear" x1="672.093" y1="120.847" x2="697.317" y2="120.847" gradientUnits="userSpaceOnUse">
<stop stop-color="#DE3129"/>
<stop offset="1" stop-color="#DE2F39"/>
</linearGradient>
</defs>
</svg>
