<svg width="679" height="395" viewBox="0 0 679 395" fill="none" xmlns="http://www.w3.org/2000/svg">
<g clip-path="url(#clip0)">
<path d="M364.766 386.296L321.714 376.982L321.801 376.547C321.888 376.112 328.759 336.681 343.892 321.71C358.765 307 360.243 298.121 360.243 298.034L360.33 297.686H360.678H395.467L347.719 374.023L364.766 386.296ZM322.758 376.286L360.939 384.555L346.588 374.284L393.902 298.557H361.026C360.591 300.385 358.069 308.915 344.501 322.319C330.411 336.333 323.54 372.108 322.758 376.286Z" fill="black"/>
<path d="M386.335 370.541L419.559 386.905H372.767L373.202 370.976L386.335 370.541Z" fill="url(#paint0_linear)"/>
<path d="M446.781 372.543L420.516 332.59L420.95 332.329C464.176 306.913 492.355 264.61 508.358 233.536C525.666 199.85 532.885 171.822 532.972 171.561L533.233 170.517L558.629 215.779V215.953C550.019 263.653 520.187 303.692 496.617 328.761C471.134 356.005 447.39 372.195 447.216 372.369L446.781 372.543ZM421.733 332.852L447.042 371.324C450.086 369.148 472.265 353.481 496.008 328.151C519.404 303.083 549.062 263.304 557.759 215.953L533.581 172.867C532.102 178.264 524.709 203.854 509.228 233.971C493.138 264.958 464.959 307.348 421.733 332.852Z" fill="black"/>
<path d="M70.4483 219.087C70.4483 219.087 84.8859 218.739 102.715 234.841C121.502 251.815 128.981 259.387 135.939 255.384C142.897 251.38 148.463 234.058 149.681 230.054C150.899 226.05 165.249 193.148 165.249 193.148H218.651L174.468 274.446C174.468 274.446 141.766 329.022 90.8001 284.978C90.8001 284.978 57.5763 259.3 51.4012 256.515L70.4483 219.087Z" fill="black"/>
<path d="M176.556 358.442L267.878 193.148H324.671L225.261 376.982L176.556 358.442Z" fill="url(#paint1_linear)"/>
<path d="M333.02 193.583H258.745L258.832 193.061C258.919 192.8 264.312 165.729 268.66 149.191C269.008 147.799 269.356 146.319 269.791 144.839C274.053 127.692 279.88 104.277 304.493 105.061C331.107 105.844 333.02 132.305 333.02 132.566V193.583ZM259.789 192.713H332.151V132.566C332.151 132.305 330.237 106.627 304.493 105.931C304.145 105.931 303.797 105.931 303.363 105.931C280.315 105.931 274.661 128.562 270.574 145.1C270.226 146.58 269.791 148.06 269.443 149.452C265.529 164.685 260.572 188.883 259.789 192.713Z" fill="black"/>
<path d="M267.878 193.148L360.852 378.984L405.904 370.541L324.671 193.148H267.878Z" fill="black"/>
<path d="M295.274 370.976H245.091L245.004 370.715C244.743 370.106 222.217 310.656 219.781 298.992C218.216 291.332 211.954 281.67 205.866 272.444C202.735 267.569 199.777 263.043 197.603 258.952C193.689 251.554 165.249 193.931 164.901 193.322L164.553 192.713H218.912L218.999 192.974L295.274 370.976ZM245.612 370.106H293.969L218.39 193.583H166.032C169.163 199.937 194.646 251.554 198.386 258.517C200.56 262.521 203.517 267.134 206.648 271.922C212.737 281.322 219.086 290.984 220.651 298.818C222.912 310.046 243.96 365.667 245.612 370.106Z" fill="black"/>
<path d="M39.1379 263.74L32.615 261.041L32.528 260.78C31.1364 253.73 32.2671 247.811 35.833 243.11C41.3992 235.712 51.5751 233.623 54.8801 233.101L50.6184 230.054L56.5326 222.394L66.0127 227.443L69.0567 228.226L58.0111 248.159L57.6632 247.985C53.9234 246.331 50.6184 246.244 47.8353 247.724C41.0514 251.38 39.1379 262.956 39.1379 263.043V263.74ZM33.3977 260.432L38.4422 262.521C38.877 260.084 41.1383 250.509 47.4874 247.114C50.4445 245.548 53.9234 245.548 57.7502 247.201L67.8391 228.922L65.7518 228.313L56.8805 223.613L52.01 229.967L57.4023 233.797L56.1847 233.884C56.0977 233.884 43.0517 235.103 36.6157 243.72C33.2238 248.072 32.1801 253.73 33.3977 260.432Z" fill="black"/>
<path d="M257.18 372.456L258.919 382.727H267.704L267.443 376.895C267.443 376.895 286.403 397.437 303.189 378.375L301.536 372.369C301.536 372.369 282.141 385.338 278.227 368.713L256.919 370.28L257.18 372.456Z" fill="black"/>
<path d="M152.551 194.192L223.086 193.235L231.958 139.443C231.958 139.443 234.654 116.028 220.825 110.98C206.996 105.931 193.515 106.627 184.905 114.2C172.12 125.255 152.551 194.192 152.551 194.192Z" fill="url(#paint2_linear)"/>
<path d="M206.735 97.9233C199.865 97.9233 194.385 92.3525 194.385 85.5632C194.385 78.6868 199.951 73.2031 206.735 73.2031C213.606 73.2031 219.086 78.7739 219.086 85.5632C219.086 92.3525 213.519 97.9233 206.735 97.9233ZM206.735 74.0736C200.386 74.0736 195.255 79.2091 195.255 85.5632C195.255 91.9173 200.386 97.0528 206.735 97.0528C213.084 97.0528 218.216 91.9173 218.216 85.5632C218.216 79.2091 213.084 74.0736 206.735 74.0736Z" fill="black"/>
<path d="M310.234 97.4879C316.814 97.4879 322.149 92.149 322.149 85.563C322.149 78.9771 316.814 73.6382 310.234 73.6382C303.653 73.6382 298.318 78.9771 298.318 85.563C298.318 92.149 303.653 97.4879 310.234 97.4879Z" fill="url(#paint3_linear)"/>
<path d="M427.213 96.5304C420.342 96.5304 414.862 90.9597 414.862 84.1704C414.862 77.294 420.429 71.8103 427.213 71.8103C433.996 71.8103 439.563 77.381 439.563 84.1704C439.563 90.9597 434.083 96.5304 427.213 96.5304ZM427.213 72.5937C420.863 72.5937 415.732 77.7292 415.732 84.0833C415.732 90.4374 420.863 95.573 427.213 95.573C433.562 95.573 438.693 90.4374 438.693 84.0833C438.693 77.7292 433.562 72.5937 427.213 72.5937Z" fill="black"/>
<path d="M562.456 85.9982C555.585 85.9982 550.106 80.4275 550.106 73.6381C550.106 66.8488 555.672 61.2781 562.456 61.2781C569.327 61.2781 574.806 66.8488 574.806 73.6381C574.806 74.0734 574.806 74.4215 574.719 74.8567C574.719 75.1179 574.458 75.292 574.284 75.2049C574.023 75.2049 573.849 74.9438 573.936 74.7697C573.936 74.4215 574.023 73.9863 574.023 73.6381C574.023 67.284 568.892 62.1485 562.543 62.1485C556.194 62.1485 551.062 67.284 551.062 73.6381C551.062 79.9923 556.194 85.1278 562.543 85.1278C563.586 85.1278 564.63 84.9537 565.674 84.6926C565.935 84.6055 566.109 84.7796 566.196 84.9537C566.283 85.2148 566.109 85.3889 565.935 85.476C564.717 85.8241 563.587 85.9982 562.456 85.9982Z" fill="black"/>
<path d="M574.371 96.3563C574.11 96.3563 573.936 96.1822 573.936 95.9211V74.7697C573.936 74.5086 574.11 74.3345 574.371 74.3345C574.632 74.3345 574.806 74.5086 574.806 74.7697V95.9211C574.806 96.1822 574.545 96.3563 574.371 96.3563Z" fill="black"/>
<path d="M574.371 98.3584H546.801L553.585 81.9073C553.672 81.6462 553.933 81.5591 554.193 81.6462C554.454 81.7332 554.541 81.9943 554.454 82.2555L548.105 97.4879H574.371C574.632 97.4879 574.806 97.662 574.806 97.9232C574.806 98.1843 574.545 98.3584 574.371 98.3584Z" fill="black"/>
<path d="M401.555 180.875C401.555 180.875 390.684 190.188 387.814 201.069C385.03 211.775 384.248 233.101 377.638 243.11C371.028 253.207 346.588 277.144 345.979 302.213H485.224L454.783 180.788H401.555V180.875Z" fill="url(#paint4_linear)"/>
<path d="M485.137 302.212L506.619 376.634H487.311C487.311 376.634 464.437 354.612 462.437 334.331C460.436 314.05 451.652 302.299 451.652 302.299H485.137V302.212Z" fill="black"/>
<path d="M506.184 375.067L528.536 386.557H489.659L487.311 376.634L506.184 375.067Z" fill="black"/>
<path d="M608.813 373.849V386.557H665.78L635.6 376.634V373.849H608.813Z" fill="url(#paint5_linear)"/>
<path d="M428.43 345.038L414.862 348.867L430.257 386.47L438.084 386.905L453.826 386.47L438.258 376.634L439.476 362.098L428.43 345.038Z" fill="url(#paint6_linear)"/>
<path d="M449.826 84.4314C459.721 84.4314 467.742 76.4035 467.742 66.5006C467.742 56.5977 459.721 48.5698 449.826 48.5698C439.931 48.5698 431.909 56.5977 431.909 66.5006C431.909 76.4035 439.931 84.4314 449.826 84.4314Z" fill="url(#paint7_linear)"/>
<path d="M421.559 72.6807C421.559 72.6807 429.474 67.8063 436.78 75.5531C442.694 81.8202 439.215 88.2613 439.215 88.2613C430.604 84.9537 425.908 79.5571 421.559 72.6807Z" fill="url(#paint8_linear)"/>
<path d="M298.231 85.563L294.143 105.496C303.015 111.502 308.407 112.546 317.626 107.933V94.8766" fill="url(#paint9_linear)"/>
<path d="M440.78 109.5H416.08L419.82 93.745C419.907 93.4839 420.081 93.3968 420.342 93.3968C420.603 93.4839 420.69 93.658 420.69 93.9191L417.211 108.629H439.824L437.649 89.2188C437.649 88.9577 437.823 88.7836 437.997 88.6965C438.258 88.6965 438.432 88.8706 438.519 89.0447L440.78 109.5Z" fill="black"/>
<path d="M382.682 201.939C368.158 201.939 356.242 200.982 351.981 193.583C347.719 186.185 351.546 173.128 363.896 152.412C383.726 119.249 398.859 105.844 411.557 110.37L411.992 110.544L374.855 180.44H393.293C393.815 180.44 406.774 179.83 412.166 185.053C413.732 186.533 414.514 188.361 414.514 190.537C414.514 200.808 403.73 201.939 403.643 201.939C399.12 201.852 394.771 201.939 390.51 201.939C387.901 201.939 385.204 201.939 382.682 201.939ZM406.948 110.457C395.641 110.457 381.725 124.471 364.679 152.934C352.502 173.389 348.676 186.185 352.763 193.235C357.46 201.417 372.767 201.243 390.51 201.069C394.771 200.982 399.207 200.982 403.643 201.069C403.991 201.069 413.732 200.024 413.732 190.537C413.732 188.622 413.036 187.055 411.644 185.749C406.426 180.788 393.467 181.397 393.38 181.397H373.463L410.948 111.154C409.557 110.631 408.252 110.457 406.948 110.457Z" fill="black"/>
<path d="M94.9747 133.872L59.9245 132.653C59.6636 132.653 55.7498 132.653 52.8797 129.868C50.9663 127.953 50.0096 125.255 50.0096 121.773C50.0096 119.162 50.8793 117.073 52.6188 115.506C56.5326 111.937 63.5774 112.459 63.8383 112.459C70.7092 112.633 77.5801 112.285 84.277 111.937C99.9322 111.154 113.5 110.457 118.631 116.985C121.241 120.293 121.502 125.08 119.414 131.783L119.327 132.044L94.9747 133.872ZM59.9245 131.783L94.9747 133.001L118.718 131.347C120.545 125.08 120.284 120.641 117.936 117.595C113.065 111.415 99.7583 112.111 84.277 112.807C77.5801 113.156 70.7092 113.504 63.7514 113.33C63.6644 113.33 56.7935 112.807 53.1406 116.115C51.6621 117.508 50.8793 119.423 50.7923 121.686C50.7923 124.906 51.6621 127.431 53.4015 129.084C56.0977 131.783 59.8376 131.783 59.9245 131.783Z" fill="black"/>
<path d="M259.963 60.843C255.788 60.843 251.527 58.4058 247.004 53.3573L246.743 53.0962L260.659 34.0338L280.054 4.78743C280.228 4.5263 282.228 1.21867 286.142 0.261202C288.751 -0.348097 291.621 0.261202 294.491 2.0891C296.666 3.48178 298.057 5.30968 298.405 7.57279C299.449 12.7954 295.274 18.4531 295.1 18.7143C292.317 22.9794 289.708 27.4185 287.186 31.6836C278.14 46.8291 270.313 59.8855 260.92 60.7559C260.659 60.7559 260.311 60.843 259.963 60.843ZM247.961 53.0091C252.483 58.0576 256.745 60.3207 260.92 59.8855C269.965 59.0151 277.619 46.1327 286.577 31.2484C289.099 26.9833 291.795 22.5441 294.578 18.192C294.665 18.105 298.666 12.5342 297.709 7.65984C297.361 5.65785 296.144 4.00404 294.143 2.6984C291.447 0.957544 288.838 0.435288 286.49 1.04459C282.837 2.00206 280.923 5.22264 280.923 5.22264L261.528 34.469L247.961 53.0091Z" fill="black"/>
<path d="M299.884 114.113C299.884 114.113 313.452 116.289 305.885 135.178C298.318 154.066 292.317 175.043 297.361 186.098C302.319 197.152 310.668 215.083 310.668 215.083L316.409 226.572C316.409 226.572 320.496 233.884 314.843 238.497C304.493 246.94 295.883 235.799 295.883 235.799L277.445 199.85C269.617 185.662 271.009 168.776 276.053 150.41C276.053 150.41 284.402 118.813 289.969 115.941C295.535 113.069 299.884 114.113 299.884 114.113Z" fill="url(#paint10_linear)"/>
<path d="M220.129 374.632L249.613 386.557H194.733L200.821 367.495L220.129 374.632Z" fill="black"/>
<path d="M528.101 167.731C528.101 167.731 522.97 180.614 525.144 193.148C527.232 205.682 550.975 246.592 562.108 265.306C573.328 284.108 597.506 315.878 594.375 373.675L640.297 374.023C638.036 238.584 587.678 235.19 576.111 167.731H528.101Z" fill="black"/>
<path d="M298.231 87.3041C300.345 87.3041 302.058 85.5894 302.058 83.4742C302.058 81.359 300.345 79.6443 298.231 79.6443C296.118 79.6443 294.404 81.359 294.404 83.4742C294.404 85.5894 296.118 87.3041 298.231 87.3041Z" fill="url(#paint11_linear)"/>
<path d="M279.358 131.696C279.358 131.696 288.403 101.666 305.885 114.2C323.453 126.647 310.147 150.584 310.147 156.938L273.966 149.365L279.358 131.696Z" fill="white"/>
<path d="M517.839 171.648H585.069L582.46 94.7026H534.364L517.839 171.648Z" fill="black"/>
<path d="M406.774 107.585L447.216 107.933L460.436 180.875H393.293L399.816 132.131L406.774 107.585Z" fill="black"/>
<path d="M504.967 219.522C500.183 219.522 494.791 214.822 494.53 214.56C494.269 214.386 474.526 194.28 487.833 153.021C504.619 101.231 534.016 95.486 534.277 95.486L534.798 95.3989V116.028L534.624 116.115C534.45 116.289 516.099 132.653 508.793 158.505C503.575 176.871 506.532 186.097 509.141 194.28C510.707 199.154 512.185 203.68 511.75 209.599C511.403 214.822 509.837 218.042 507.228 219.087C506.532 219.435 505.749 219.522 504.967 219.522ZM533.929 96.4434C529.928 97.488 504.01 105.844 488.616 153.282C481.745 174.521 483.832 189.927 486.876 198.98C490.094 208.903 495.052 213.777 495.139 213.864C495.226 213.951 502.357 220.131 506.967 218.216C509.315 217.259 510.707 214.299 510.968 209.425C511.316 203.68 509.924 199.241 508.359 194.454C505.749 186.185 502.705 176.784 508.011 158.157C515.055 133.263 532.189 117.16 534.016 115.506V96.4434H533.929Z" fill="black"/>
<path d="M616.379 190.624C613.944 190.624 611.509 190.363 608.987 189.927C594.375 187.055 583.155 175.565 575.763 155.894V155.807V155.72L580.111 98.7936C580.111 98.5324 580.372 98.3583 580.546 98.3583C580.807 98.3583 580.981 98.6195 580.981 98.7936L576.632 155.545C583.938 174.869 594.81 186.185 609.16 188.97C627.512 192.626 645.254 181.136 649.255 176.784C652.473 173.302 653.43 168.776 651.429 166.078C649.777 163.815 643.776 159.636 622.815 169.211C617.771 171.561 612.9 171.387 608.465 168.863C599.854 163.902 592.636 150.236 587.069 128.127C582.895 111.676 581.242 96.5304 581.242 96.3564C581.242 96.0952 581.416 95.9211 581.59 95.9211C581.851 95.9211 582.025 96.0952 582.112 96.2693C582.199 96.8786 588.809 156.677 608.9 168.08C613.074 170.517 617.684 170.604 622.467 168.428C629.686 165.12 646.907 158.331 652.125 165.555C654.3 168.602 653.343 173.563 649.864 177.393C646.298 181.31 632.208 190.624 616.379 190.624Z" fill="black"/>
<path d="M575.676 75.2049C575.154 75.2049 574.719 75.1179 574.197 74.9438C573.936 74.8568 573.849 74.5956 573.936 74.3345C574.023 74.0734 574.284 73.9863 574.545 74.0734C574.893 74.2475 575.241 74.2475 575.676 74.2475C577.328 74.2475 578.72 72.8548 578.72 71.201C578.72 69.5472 577.328 68.1545 575.676 68.1545C574.98 68.1545 574.197 68.4156 573.675 68.9379C573.501 69.1119 573.241 69.1119 573.067 68.9379C572.893 68.7638 572.893 68.5026 573.067 68.3286C573.762 67.7193 574.719 67.3711 575.589 67.3711C577.763 67.3711 579.503 69.1119 579.503 71.288C579.503 73.4641 577.763 75.2049 575.676 75.2049Z" fill="black"/>
<path d="M193.081 88.6095C192.385 88.6095 191.689 88.3484 191.167 87.9132C190.558 87.3909 190.123 86.6946 190.037 85.8241C189.95 85.0408 190.21 84.1703 190.645 83.561C191.167 82.9517 191.863 82.5165 192.733 82.4295C193.515 82.3424 194.211 82.5165 194.82 82.9517C194.994 83.1258 195.081 83.3869 194.907 83.561C194.733 83.7351 194.472 83.8222 194.298 83.6481C193.863 83.3869 193.341 83.2129 192.82 83.2999C192.211 83.3869 191.689 83.6481 191.341 84.0833C190.993 84.5185 190.819 85.1278 190.906 85.7371C190.993 86.3464 191.254 86.8687 191.689 87.2168C192.124 87.565 192.733 87.7391 193.341 87.652C193.602 87.652 193.863 87.565 194.124 87.3909C194.298 87.3039 194.559 87.3909 194.733 87.565C194.82 87.7391 194.733 88.0002 194.559 88.1743C194.211 88.3484 193.863 88.4354 193.428 88.5225C193.341 88.6095 193.168 88.6095 193.081 88.6095Z" fill="black"/>
<path d="M220.216 89.132C220.042 89.132 219.955 89.132 219.781 89.132C219.346 89.0449 218.999 88.9579 218.651 88.7838C218.477 88.6968 218.39 88.4356 218.477 88.1745C218.564 88.0004 218.825 87.9134 219.086 88.0004C219.346 88.1745 219.607 88.2615 219.868 88.2615C221.086 88.4356 222.217 87.5652 222.391 86.3466C222.477 85.7373 222.304 85.215 221.956 84.6928C221.608 84.2576 221.086 83.9094 220.477 83.8224C219.955 83.7353 219.433 83.9094 218.999 84.1705C218.825 84.3446 218.564 84.2576 218.39 84.0835C218.216 83.9094 218.303 83.6483 218.477 83.4742C219.086 83.039 219.868 82.8649 220.564 82.9519C221.347 83.039 222.13 83.4742 222.564 84.1705C222.999 84.8669 223.26 85.6503 223.173 86.4336C223.086 88.0004 221.695 89.132 220.216 89.132Z" fill="black"/>
<path d="M548.888 53.0092C548.888 53.0092 553.411 68.938 573.849 68.3287L575.589 67.4583C575.676 67.4583 575.676 45.9587 548.888 53.0092Z" fill="black"/>
<path d="M310.581 97.5751C308.755 97.5751 306.755 97.1399 304.841 96.0083C304.667 95.9213 304.58 95.5731 304.667 95.399C304.754 95.2249 305.102 95.1379 305.276 95.2249C311.103 98.7937 317.539 94.7897 317.539 94.7027C317.713 94.6157 317.974 94.6156 318.148 94.8768C318.235 95.0509 318.235 95.312 317.974 95.4861C318.061 95.4861 314.756 97.5751 310.581 97.5751Z" fill="black"/>
<path d="M305.885 84.2574C306.317 84.2574 306.668 83.9067 306.668 83.4741C306.668 83.0414 306.317 82.6907 305.885 82.6907C305.453 82.6907 305.102 83.0414 305.102 83.4741C305.102 83.9067 305.453 84.2574 305.885 84.2574Z" fill="black"/>
<path d="M200.386 84.6927C200.819 84.6927 201.169 84.342 201.169 83.9094C201.169 83.4767 200.819 83.126 200.386 83.126C199.954 83.126 199.604 83.4767 199.604 83.9094C199.604 84.342 199.954 84.6927 200.386 84.6927Z" fill="black"/>
<path d="M212.65 84.6927C213.082 84.6927 213.432 84.342 213.432 83.9094C213.432 83.4767 213.082 83.126 212.65 83.126C212.217 83.126 211.867 83.4767 211.867 83.9094C211.867 84.342 212.217 84.6927 212.65 84.6927Z" fill="black"/>
<path d="M421.037 82.8649C421.47 82.8649 421.82 82.5141 421.82 82.0815C421.82 81.6488 421.47 81.2981 421.037 81.2981C420.605 81.2981 420.255 81.6488 420.255 82.0815C420.255 82.5141 420.605 82.8649 421.037 82.8649Z" fill="black"/>
<path d="M553.411 71.1139C553.843 71.1139 554.193 70.7632 554.193 70.3305C554.193 69.8979 553.843 69.5471 553.411 69.5471C552.978 69.5471 552.628 69.8979 552.628 70.3305C552.628 70.7632 552.978 71.1139 553.411 71.1139Z" fill="black"/>
<path d="M565.674 71.1139C566.106 71.1139 566.457 70.7632 566.457 70.3305C566.457 69.8979 566.106 69.5471 565.674 69.5471C565.242 69.5471 564.891 69.8979 564.891 70.3305C564.891 70.7632 565.242 71.1139 565.674 71.1139Z" fill="black"/>
<path d="M318.67 83.474C319.102 83.474 319.453 83.1233 319.453 82.6906C319.453 82.258 319.102 81.9072 318.67 81.9072C318.238 81.9072 317.887 82.258 317.887 82.6906C317.887 83.1233 318.238 83.474 318.67 83.474Z" fill="black"/>
<path d="M552.193 74.7697C549.758 74.7697 547.757 72.7677 547.757 70.3305C547.757 67.8933 549.758 65.8914 552.193 65.8914C554.628 65.8914 556.629 67.8933 556.629 70.3305C556.629 72.7677 554.628 74.7697 552.193 74.7697ZM552.193 66.7618C550.28 66.7618 548.627 68.3286 548.627 70.3305C548.627 72.3325 550.193 73.8993 552.193 73.8993C554.106 73.8993 555.759 72.3325 555.759 70.3305C555.759 68.3286 554.106 66.7618 552.193 66.7618Z" fill="#ED1C24"/>
<path d="M565.674 74.7697C563.239 74.7697 561.238 72.7677 561.238 70.3305C561.238 67.8933 563.239 65.8914 565.674 65.8914C568.109 65.8914 570.109 67.8933 570.109 70.3305C570.109 72.7677 568.109 74.7697 565.674 74.7697ZM565.674 66.7618C563.76 66.7618 562.108 68.3286 562.108 70.3305C562.108 72.3325 563.674 73.8993 565.674 73.8993C567.587 73.8993 569.24 72.3325 569.24 70.3305C569.24 68.3286 567.587 66.7618 565.674 66.7618Z" fill="#ED1C24"/>
<path d="M651.603 395H176.556C176.295 395 176.121 394.826 176.121 394.565C176.121 394.304 176.295 394.13 176.556 394.13H651.603C651.864 394.13 652.038 394.304 652.038 394.565C652.038 394.826 651.777 395 651.603 395Z" fill="black"/>
<path d="M440.259 82.5167C440.172 82.5167 439.998 82.4296 439.911 82.3426L431.474 71.6363C431.3 71.4622 431.387 71.2011 431.561 71.027C431.735 70.8529 431.996 70.94 432.17 71.1141L440.606 81.8203C440.78 81.9944 440.693 82.2555 440.519 82.4296C440.519 82.5167 440.432 82.5167 440.259 82.5167Z" fill="black"/>
<path d="M456.783 52.4867C456.696 52.4867 456.696 52.4867 456.609 52.4867C449.826 49.3532 442.868 52.4867 442.868 52.4867C442.694 52.5738 442.433 52.4867 442.259 52.3127C442.172 52.1386 442.259 51.8774 442.433 51.7034C442.694 51.5293 449.739 48.3957 456.957 51.7034C457.218 51.7904 457.305 52.0515 457.131 52.3127C457.131 52.3997 456.957 52.4867 456.783 52.4867Z" fill="white"/>
<path d="M418.776 109.065C418.776 109.065 389.64 97.3139 368.245 138.833L402.338 146.145L418.776 109.065Z" fill="black"/>
<path d="M373.376 181.31H368.245C367.984 181.31 367.81 181.136 367.81 180.875C367.81 180.614 367.984 180.44 368.245 180.44H373.376C373.637 180.44 373.811 180.614 373.811 180.875C373.811 181.136 373.55 181.31 373.376 181.31Z" fill="black"/>
<path d="M412.862 186.794H399.033C398.772 186.794 398.598 186.62 398.598 186.359C398.598 186.097 398.772 185.923 399.033 185.923H412.862C413.123 185.923 413.297 186.097 413.297 186.359C413.297 186.62 413.123 186.794 412.862 186.794Z" fill="black"/>
<path d="M414.167 192.016H400.338C400.077 192.016 399.903 191.842 399.903 191.581C399.903 191.32 400.077 191.146 400.338 191.146H414.167C414.427 191.146 414.601 191.32 414.601 191.581C414.601 191.842 414.427 192.016 414.167 192.016Z" fill="black"/>
<path d="M412.688 196.717H398.859C398.598 196.717 398.424 196.543 398.424 196.281C398.424 196.02 398.598 195.846 398.859 195.846H412.688C412.949 195.846 413.123 196.02 413.123 196.281C413.123 196.543 412.862 196.717 412.688 196.717Z" fill="black"/>
<path d="M562.021 68.1545H555.759V69.025H562.021V68.1545Z" fill="#ED1C24"/>
<path d="M305.624 241.979C305.45 241.979 305.276 241.892 305.276 241.718L299.884 231.099C299.797 230.924 299.884 230.663 300.058 230.489C300.232 230.402 300.493 230.489 300.666 230.663L306.059 241.283C306.146 241.457 306.059 241.718 305.885 241.892C305.711 241.979 305.711 241.979 305.624 241.979Z" fill="black"/>
<path d="M311.451 241.022C311.277 241.022 311.103 240.934 311.103 240.76L305.189 229.358C305.102 229.184 305.189 228.923 305.363 228.749C305.537 228.661 305.798 228.749 305.972 228.923L311.886 240.325C311.973 240.499 311.886 240.76 311.712 240.934C311.625 241.022 311.538 241.022 311.451 241.022Z" fill="black"/>
<path d="M315.887 237.888C315.713 237.888 315.539 237.801 315.539 237.627L309.712 226.659C309.625 226.485 309.712 226.224 309.886 226.05C310.06 225.963 310.32 226.05 310.494 226.224L316.322 237.191C316.409 237.366 316.322 237.627 316.148 237.801C316.061 237.888 315.974 237.888 315.887 237.888Z" fill="black"/>
<path d="M299.101 155.023C299.014 155.023 299.014 155.023 298.927 155.023C298.666 154.936 298.579 154.675 298.666 154.501L305.015 135.178C305.102 134.916 305.363 134.829 305.537 134.916C305.798 135.003 305.885 135.265 305.798 135.439L299.449 154.762C299.449 154.936 299.275 155.023 299.101 155.023Z" fill="black"/>
<path d="M310.668 80.7758C306.755 80.7758 304.145 79.7313 303.884 79.6442C300.753 78.7738 298.84 79.3831 297.274 79.9054C294.491 80.7758 293.013 80.9499 289.969 74.5958C287.186 68.7639 289.447 66.936 292.056 64.934C294.404 63.1061 297.014 61.0171 297.622 55.4464C297.883 53.0092 298.579 51.4424 299.71 50.572C301.362 49.3534 303.624 49.7886 305.972 50.3108C309.886 51.0942 313.973 51.8776 316.757 46.3939C318.67 42.477 321.192 41.6936 322.932 41.6936C326.324 41.7806 329.542 44.9142 330.933 48.0477C332.238 50.9201 332.064 53.6185 330.585 55.4464C328.759 57.6224 329.542 59.4503 330.585 61.8005C332.064 65.1081 333.803 69.1121 326.671 74.9439C320.583 79.9054 314.756 80.9499 310.929 80.9499C310.668 80.7758 310.668 80.7758 310.668 80.7758ZM300.84 78.3386C301.797 78.3386 302.841 78.5127 304.058 78.8609H304.145C304.232 78.9479 314.756 83.213 325.976 74.1605C332.586 68.8509 331.107 65.3692 329.629 62.0616C328.585 59.7985 327.628 57.4483 329.802 54.8371C331.107 53.2703 331.194 50.9201 330.063 48.3959C328.759 45.5235 325.889 42.6511 322.845 42.564C320.67 42.477 318.844 43.9567 317.452 46.7421C314.408 52.8351 309.625 51.9646 305.798 51.1813C303.537 50.746 301.536 50.3108 300.232 51.2683C299.275 51.9646 298.753 53.3573 298.492 55.5334C297.883 61.3653 295.013 63.7154 292.665 65.5433C290.056 67.6323 288.316 69.025 290.838 74.1605C293.709 80.0795 294.839 79.7313 297.101 79.0349C297.97 78.6868 299.188 78.3386 300.84 78.3386Z" fill="black"/>
<path d="M296.84 85.3889C296.666 85.3889 296.492 85.3019 296.492 85.1278C296.405 84.9537 296.492 84.6926 296.666 84.5185L298.927 83.387L296.666 82.1684C296.492 82.0813 296.405 81.8202 296.492 81.5591C296.579 81.385 296.84 81.2979 297.101 81.385L300.84 83.387L297.101 85.3019C297.014 85.3889 296.927 85.3889 296.84 85.3889Z" fill="black"/>
<path d="M215.172 107.585H64.4471L79.4065 137.876L190.471 135.265L215.172 107.585Z" fill="url(#paint12_linear)"/>
<path d="M231.349 133.176L293.1 30.291L268.834 10.6194L211.78 111.328L231.349 133.176Z" fill="url(#paint13_linear)"/>
<path d="M206.3 91.656C204.3 91.656 202.909 90.3503 202.909 90.2633C202.735 90.0892 202.735 89.8281 202.909 89.654C203.082 89.4799 203.343 89.4799 203.517 89.654C203.604 89.741 206.04 92.0912 209.171 89.654C209.345 89.4799 209.605 89.567 209.779 89.741C209.953 89.9151 209.866 90.1763 209.692 90.3503C208.475 91.3078 207.257 91.656 206.3 91.656Z" fill="black"/>
<path d="M313.451 91.656C311.451 91.656 309.886 90.3503 309.886 90.2633C309.712 90.0892 309.712 89.8281 309.886 89.654C310.06 89.4799 310.32 89.4799 310.494 89.654C310.581 89.741 313.365 92.1782 316.148 89.654C316.322 89.4799 316.583 89.4799 316.757 89.654C316.93 89.8281 316.93 90.0892 316.757 90.2633C315.626 91.3078 314.495 91.656 313.451 91.656Z" fill="black"/>
<path d="M205.431 114.548C201.604 114.548 197.081 113.678 192.124 111.067L191.863 110.893L196.473 92.1784C196.559 91.9173 196.733 91.8302 196.994 91.8302C197.255 91.9173 197.342 92.0914 197.342 92.3525L192.82 110.37C206.474 117.334 216.824 110.893 218.216 109.848L217.781 88.6967C217.781 88.4356 217.955 88.2615 218.216 88.2615C218.477 88.2615 218.651 88.4356 218.651 88.6967L219.086 110.283L218.912 110.457C218.825 110.631 213.606 114.548 205.431 114.548Z" fill="black"/>
<path d="M419.037 78.5127L411.557 85.302L418.08 85.5632L419.037 78.5127Z" fill="url(#paint14_linear)"/>
<path d="M282.141 10.6192C282.054 10.6192 281.967 10.6192 281.88 10.5322C281.706 10.3581 281.619 10.0969 281.793 9.92286L288.316 0.870411C288.49 0.696325 288.751 0.609282 288.925 0.783368C289.099 0.957453 289.186 1.21858 289.012 1.39267L282.489 10.4451C282.402 10.5322 282.315 10.6192 282.141 10.6192Z" fill="black"/>
<path d="M286.49 12.3602C286.403 12.3602 286.316 12.3602 286.229 12.2732C286.055 12.0991 285.968 11.838 286.142 11.6639L293.361 1.74102C293.535 1.56693 293.796 1.47989 293.969 1.65397C294.143 1.82806 294.23 2.08919 294.056 2.26327L286.838 12.1861C286.751 12.3602 286.577 12.3602 286.49 12.3602Z" fill="black"/>
<path d="M290.491 15.0584C290.404 15.0584 290.317 15.0584 290.23 14.9714C290.056 14.7973 289.969 14.5362 290.143 14.3621L296.84 5.13555C297.014 4.96146 297.275 4.87442 297.448 5.0485C297.622 5.22259 297.709 5.48372 297.535 5.6578L290.838 14.8843C290.751 14.9714 290.665 15.0584 290.491 15.0584Z" fill="black"/>
<path d="M53.1406 129.084C52.9667 129.084 52.7927 128.91 52.7057 128.736C52.7057 128.475 52.7927 128.301 53.0536 128.214L65.8387 125.951C66.0996 125.864 66.2736 126.038 66.3605 126.299C66.4475 126.56 66.2736 126.734 66.0127 126.821L53.1406 129.084Z" fill="black"/>
<path d="M50.9663 124.645C50.7924 124.645 50.6184 124.471 50.5314 124.297C50.5314 124.036 50.6184 123.862 50.8793 123.775L62.9686 121.686C63.2295 121.599 63.4035 121.773 63.4904 122.034C63.4904 122.295 63.4035 122.469 63.1426 122.556L50.9663 124.645Z" fill="black"/>
<path d="M50.8793 119.858C50.7054 119.858 50.5314 119.684 50.4445 119.51C50.4445 119.249 50.5314 119.075 50.7924 118.988L62.0989 116.986C62.3598 116.898 62.5337 117.073 62.6207 117.334C62.6207 117.595 62.5337 117.769 62.2728 117.856L50.8793 119.858C50.9663 119.858 50.8793 119.858 50.8793 119.858Z" fill="black"/>
<path d="M232.045 132.131C231.784 132.131 231.61 131.957 231.61 131.696C231.697 124.645 229.261 120.38 227.174 118.03C225 115.506 222.651 114.548 222.651 114.548C222.391 114.461 222.304 114.2 222.391 114.026C222.477 113.765 222.738 113.678 222.912 113.765C222.999 113.765 232.479 117.595 232.392 131.696C232.479 131.957 232.305 132.131 232.045 132.131Z" fill="black"/>
<path d="M317.974 88.0874L312.843 87.6522C312.582 87.6522 312.408 87.391 312.408 87.2169C312.408 86.9558 312.669 86.7817 312.843 86.7817L317.191 87.1299L317.278 86.4336L312.495 82.0814C312.321 81.9073 312.321 81.6462 312.495 81.4721C312.669 81.298 312.93 81.298 313.104 81.4721L318.322 86.1724L317.974 88.0874Z" fill="black"/>
<path d="M206.822 79.7312C206.127 82.0814 205.779 84.9538 203.43 86.3465C202.561 86.8687 204.126 88.0003 204.126 88.0003H207.605" fill="url(#paint15_linear)"/>
<path d="M559.325 79.3831C559.238 79.3831 559.151 79.3831 558.977 79.3831C557.237 79.209 556.194 77.9904 556.194 77.9904C556.02 77.8163 556.02 77.5552 556.281 77.3811C556.455 77.207 556.716 77.207 556.89 77.4681C556.977 77.5552 559.064 79.9924 562.021 77.3811C562.195 77.207 562.456 77.207 562.63 77.4681C562.804 77.6422 562.804 77.9033 562.543 78.0774C561.499 78.9479 560.368 79.3831 559.325 79.3831Z" fill="black"/>
<path d="M446.521 107.933H449.043L467.742 146.232L453.565 153.369L446.521 107.933Z" fill="black"/>
<path d="M558.89 76.0754H553.672L552.976 75.1179L557.672 69.9824C557.846 69.8083 558.107 69.8083 558.281 69.9824C558.455 70.1565 558.455 70.4176 558.281 70.5917L554.106 75.2049H558.89C559.151 75.2049 559.325 75.379 559.325 75.6401C559.325 75.9013 559.064 76.0754 558.89 76.0754Z" fill="black"/>
<path d="M283.359 124.732C283.272 124.732 283.272 124.732 283.185 124.645L277.879 122.034C277.705 121.947 277.532 121.686 277.705 121.425C277.792 121.251 278.053 121.164 278.314 121.251L283.62 123.862C283.794 123.949 283.968 124.21 283.794 124.471C283.707 124.645 283.533 124.732 283.359 124.732Z" fill="black"/>
<path d="M302.058 122.121C301.797 122.121 301.623 121.947 301.623 121.686V115.68C301.623 115.419 301.797 115.245 302.058 115.245C302.319 115.245 302.493 115.419 302.493 115.68V121.686C302.493 121.947 302.232 122.121 302.058 122.121Z" fill="black"/>
<path d="M324.845 130.042H319.453C319.192 130.042 319.018 129.868 319.018 129.607C319.018 129.345 319.192 129.171 319.453 129.171H324.845C325.106 129.171 325.28 129.345 325.28 129.607C325.28 129.868 325.019 130.042 324.845 130.042Z" fill="black"/>
<path d="M331.629 149.801H326.237C325.976 149.801 325.802 149.627 325.802 149.365C325.802 149.104 325.976 148.93 326.237 148.93H331.629C331.89 148.93 332.064 149.104 332.064 149.365C332.064 149.627 331.89 149.801 331.629 149.801Z" fill="black"/>
<path d="M312.93 161.116C312.843 161.116 312.669 161.116 312.582 161.029L308.755 157.199C308.581 157.025 308.581 156.764 308.755 156.59C308.929 156.416 309.19 156.416 309.364 156.59L313.191 160.42C313.365 160.594 313.365 160.855 313.191 161.029C313.191 161.116 313.017 161.116 312.93 161.116Z" fill="black"/>
<path d="M328.933 181.31H322.149C321.888 181.31 321.714 181.136 321.714 180.875C321.714 180.614 321.888 180.44 322.149 180.44H328.933C329.194 180.44 329.368 180.614 329.368 180.875C329.368 181.136 329.194 181.31 328.933 181.31Z" fill="black"/>
<path d="M299.884 184.792C299.797 184.792 299.797 184.792 299.71 184.792C299.449 184.705 299.362 184.444 299.449 184.183L301.623 179.134C301.71 178.873 301.971 178.786 302.232 178.873C302.493 178.96 302.58 179.221 302.493 179.482L300.319 184.531C300.145 184.705 299.971 184.792 299.884 184.792Z" fill="black"/>
<path d="M266.399 182.181C266.312 182.181 266.138 182.181 266.051 182.094L262.137 178.177C261.963 178.003 261.963 177.741 262.137 177.567C262.311 177.393 262.572 177.393 262.746 177.567L266.66 181.484C266.834 181.658 266.834 181.919 266.66 182.094C266.66 182.094 266.573 182.181 266.399 182.181Z" fill="black"/>
<path d="M275.444 139.878H271.878C271.617 139.878 271.443 139.704 271.443 139.443C271.443 139.181 271.617 139.007 271.878 139.007H275.444C275.705 139.007 275.879 139.181 275.879 139.443C275.879 139.704 275.618 139.878 275.444 139.878Z" fill="black"/>
<path d="M439.041 367.93C438.954 367.93 438.954 367.93 438.867 367.93L432.257 365.057C431.996 364.97 431.909 364.709 431.996 364.448C432.083 364.187 432.344 364.1 432.605 364.187L439.215 367.059C439.476 367.146 439.563 367.407 439.476 367.669C439.302 367.843 439.215 367.93 439.041 367.93Z" fill="black"/>
<path d="M439.041 372.369H433.127C432.866 372.369 432.692 372.195 432.692 371.934C432.692 371.673 432.866 371.499 433.127 371.499H438.954C439.215 371.499 439.389 371.673 439.389 371.934C439.389 372.195 439.215 372.369 439.041 372.369Z" fill="black"/>
<path d="M438.258 377.069H434.344C434.083 377.069 433.909 376.895 433.909 376.634C433.909 376.373 434.083 376.199 434.344 376.199H438.258C438.519 376.199 438.693 376.373 438.693 376.634C438.693 376.895 438.519 377.069 438.258 377.069Z" fill="black"/>
<path d="M392.945 379.158C392.858 379.158 392.684 379.071 392.597 378.984C392.423 378.81 392.51 378.549 392.684 378.375L398.25 373.762C398.424 373.588 398.685 373.675 398.859 373.849C399.033 374.023 398.946 374.284 398.772 374.458L393.206 379.071C393.119 379.158 393.032 379.158 392.945 379.158Z" fill="black"/>
<path d="M398.511 380.464C398.424 380.464 398.25 380.377 398.163 380.29C397.989 380.116 397.989 379.855 398.163 379.681L401.903 376.286C402.077 376.112 402.338 376.112 402.512 376.286C402.686 376.46 402.686 376.721 402.512 376.895L398.772 380.29C398.685 380.464 398.598 380.464 398.511 380.464Z" fill="black"/>
<path d="M402.86 382.031C402.773 382.031 402.599 381.944 402.512 381.857C402.338 381.683 402.338 381.421 402.512 381.247L405.208 378.897C405.382 378.723 405.643 378.723 405.817 378.897C405.991 379.071 405.991 379.332 405.817 379.506L403.121 381.857C403.121 382.031 402.947 382.031 402.86 382.031Z" fill="black"/>
<path d="M224.217 380.029C224.043 380.029 223.869 379.942 223.782 379.768C223.695 379.506 223.869 379.332 224.043 379.245L230.653 377.069C230.914 376.982 231.088 377.156 231.175 377.33C231.262 377.504 231.088 377.766 230.914 377.853L224.304 380.029H224.217Z" fill="url(#paint16_linear)"/>
<path d="M230.479 382.727C230.305 382.727 230.131 382.64 230.044 382.466C229.957 382.205 230.044 382.031 230.305 381.857L235.784 379.593C236.045 379.506 236.219 379.593 236.393 379.855C236.48 380.116 236.393 380.29 236.132 380.464L230.653 382.727C230.566 382.727 230.566 382.727 230.479 382.727Z" fill="url(#paint17_linear)"/>
<path d="M484.18 298.557H439.041C438.78 298.557 438.606 298.383 438.606 298.121C438.606 297.86 438.78 297.686 439.041 297.686H484.18C484.441 297.686 484.615 297.86 484.615 298.121C484.615 298.383 484.354 298.557 484.18 298.557Z" fill="black"/>
<path d="M483.049 292.029H461.306C461.045 292.029 460.871 291.855 460.871 291.593C460.871 291.332 461.045 291.158 461.306 291.158H483.049C483.31 291.158 483.484 291.332 483.484 291.593C483.484 291.855 483.223 292.029 483.049 292.029Z" fill="black"/>
<path d="M502.27 219.957C502.096 219.957 502.009 219.87 501.922 219.783L494.878 209.512C494.704 209.338 494.791 209.077 494.965 208.903C495.139 208.729 495.4 208.816 495.573 208.99L502.618 219.261C502.792 219.435 502.705 219.696 502.531 219.87C502.444 219.87 502.357 219.957 502.27 219.957Z" fill="black"/>
<path d="M506.793 217.781C506.619 217.781 506.532 217.694 506.445 217.607L499.4 207.336C499.226 207.162 499.313 206.901 499.487 206.727C499.661 206.553 499.922 206.64 500.096 206.814L507.141 217.085C507.315 217.259 507.228 217.52 507.054 217.694C506.967 217.694 506.88 217.781 506.793 217.781Z" fill="black"/>
<path d="M510.359 214.908C510.185 214.908 510.098 214.821 510.011 214.734L503.749 205.856C503.575 205.682 503.662 205.421 503.836 205.247C504.01 205.073 504.271 205.16 504.445 205.334L510.707 214.212C510.881 214.386 510.794 214.647 510.62 214.821C510.533 214.821 510.446 214.908 510.359 214.908Z" fill="black"/>
<path d="M534.363 94.7027C534.363 94.7027 513.49 94.0934 497.835 114.026L519.143 137.267C526.71 129.955 543.757 114.374 534.363 94.7027Z" fill="url(#paint18_linear)"/>
<path d="M582.46 94.7026L597.68 134.133L583.938 139.617L582.46 94.7026Z" fill="url(#paint19_linear)"/>
<path d="M455.479 155.458C455.305 155.458 455.044 155.284 455.044 155.11L452.087 137.353C452.087 137.092 452.174 136.918 452.435 136.831C452.696 136.744 452.87 136.918 452.957 137.179L455.914 154.936C455.914 155.197 455.74 155.458 455.479 155.458Z" fill="url(#paint20_linear)"/>
<path d="M377.029 372.369C376.855 372.369 376.681 372.195 376.594 372.021C376.507 371.76 376.681 371.586 376.942 371.499L404.513 365.928C404.773 365.841 404.947 366.015 405.034 366.276C405.121 366.537 404.947 366.711 404.686 366.798L377.029 372.369Z" fill="url(#paint21_linear)"/>
<path d="M677.695 388.211H32.528C31.8322 388.211 31.2234 387.602 31.2234 386.905C31.2234 386.209 31.8322 385.6 32.528 385.6H677.782C678.478 385.6 679.087 386.209 679.087 386.905C679.087 387.602 678.478 388.211 677.695 388.211Z" fill="black"/>
<path d="M228.479 372.456C228.392 372.456 228.392 372.456 228.305 372.456L201.343 361.14C201.082 361.053 200.995 360.792 201.082 360.531C201.169 360.27 201.43 360.183 201.691 360.27L228.653 371.586C228.914 371.673 229 371.934 228.914 372.195C228.827 372.369 228.653 372.456 228.479 372.456Z" fill="black"/>
<path d="M636.818 169.472C636.644 169.472 636.47 169.385 636.383 169.211C636.296 168.95 636.383 168.776 636.644 168.689L650.038 163.989C650.299 163.902 650.473 163.989 650.56 164.25C650.647 164.511 650.56 164.685 650.299 164.772L636.905 169.472C636.905 169.472 636.905 169.472 636.818 169.472Z" fill="black"/>
<path d="M639.514 173.128C639.34 173.128 639.166 173.041 639.079 172.867C638.992 172.606 639.079 172.432 639.34 172.345L652.038 167.383C652.299 167.296 652.473 167.383 652.56 167.644C652.647 167.905 652.56 168.08 652.299 168.167L639.601 173.128C639.688 173.128 639.601 173.128 639.514 173.128Z" fill="black"/>
<path d="M642.471 176.784C642.297 176.784 642.123 176.697 642.036 176.523C641.949 176.261 642.036 176.087 642.297 175.913L652.038 171.735C652.299 171.648 652.473 171.735 652.647 171.996C652.734 172.258 652.647 172.432 652.386 172.606L642.645 176.784C642.558 176.784 642.558 176.784 642.471 176.784Z" fill="black"/>
<path d="M558.977 181.31L534.451 181.223C534.19 181.223 534.016 181.049 534.016 180.788C534.016 180.527 534.19 180.353 534.451 180.353L558.977 180.44C559.238 180.44 559.412 180.614 559.412 180.875C559.412 181.136 559.151 181.31 558.977 181.31Z" fill="url(#paint22_linear)"/>
<path d="M376.159 275.839C369.027 275.839 362.591 271.051 360.504 264.175L361.374 263.914C363.374 270.355 369.462 274.881 376.246 274.881C384.77 274.881 391.727 267.918 391.727 259.387C391.727 250.944 385.117 244.155 376.768 243.894V243.023C385.639 243.285 392.597 250.509 392.597 259.387C392.597 268.44 385.204 275.839 376.159 275.839Z" fill="white"/>
<path d="M415.558 238.671C406.513 238.671 399.207 231.36 399.207 222.307C399.207 213.255 406.513 205.943 415.558 205.943C424.603 205.943 431.909 213.255 431.909 222.307C431.909 231.36 424.603 238.671 415.558 238.671ZM415.558 206.814C407.035 206.814 400.077 213.777 400.077 222.307C400.077 230.837 407.035 237.801 415.558 237.801C424.081 237.801 431.039 230.837 431.039 222.307C431.039 213.777 424.081 206.814 415.558 206.814Z" fill="white"/>
<path d="M462.871 215.17C453.826 215.17 446.521 207.858 446.521 198.806C446.521 192.539 450.173 186.707 455.827 184.009L456.175 184.792C450.782 187.316 447.303 192.887 447.303 198.806C447.303 207.336 454.261 214.299 462.784 214.299C463.045 214.299 463.306 214.299 463.48 214.299V215.17C463.393 215.17 463.132 215.17 462.871 215.17Z" fill="white"/>
<path d="M462.872 272.879C453.826 272.879 446.521 265.568 446.521 256.515C446.521 247.463 453.826 240.151 462.872 240.151C465.829 240.151 468.786 240.935 471.308 242.501L470.873 243.285C468.438 241.805 465.742 241.022 462.872 241.022C454.348 241.022 447.39 247.985 447.39 256.515C447.39 265.045 454.348 272.009 462.872 272.009C468.351 272.009 473.395 269.136 476.178 264.436L476.961 264.871C474.004 269.833 468.612 272.879 462.872 272.879Z" fill="white"/>
<path d="M424.516 302.212H423.647C423.647 293.682 416.689 286.719 408.165 286.719C399.642 286.719 392.684 293.682 392.684 302.212H391.814C391.814 293.16 399.12 285.848 408.165 285.848C417.211 285.848 424.516 293.247 424.516 302.212Z" fill="white"/>
<path d="M173.425 135.7H162.64C162.379 135.7 162.205 135.526 162.205 135.265C162.205 135.003 162.379 134.829 162.64 134.829H173.425C173.686 134.829 173.859 135.003 173.859 135.265C173.859 135.526 173.599 135.7 173.425 135.7Z" fill="black"/>
<path d="M633.513 380.203C633.339 380.203 633.165 380.116 633.165 379.942C633.078 379.768 633.165 379.506 633.339 379.332L638.644 376.46C638.818 376.373 639.079 376.46 639.253 376.634C639.34 376.808 639.253 377.069 639.079 377.243L633.774 380.116C633.6 380.203 633.6 380.203 633.513 380.203Z" fill="black"/>
<path d="M639.253 381.247C639.079 381.247 638.905 381.16 638.905 380.986C638.818 380.812 638.905 380.551 639.079 380.377L642.906 378.375C643.08 378.288 643.341 378.375 643.515 378.549C643.602 378.723 643.515 378.984 643.341 379.158L639.514 381.16C639.427 381.247 639.34 381.247 639.253 381.247Z" fill="black"/>
<path d="M644.559 381.683C644.385 381.683 644.298 381.595 644.211 381.421C644.124 381.247 644.211 380.986 644.385 380.812L646.994 379.419C647.168 379.332 647.429 379.419 647.603 379.593C647.69 379.768 647.603 380.029 647.429 380.203L644.82 381.595C644.733 381.683 644.646 381.683 644.559 381.683Z" fill="black"/>
<path d="M311.625 55.0112C309.19 55.0112 306.755 54.4019 306.581 54.4019C306.32 54.3148 306.233 54.1407 306.233 53.8796C306.32 53.6185 306.494 53.5314 306.755 53.5314C306.842 53.5314 312.234 54.8371 314.756 53.5314C317.278 52.2258 319.018 47.4384 319.018 47.3514C319.105 47.0903 319.366 47.0032 319.54 47.0903C319.801 47.1773 319.888 47.4384 319.801 47.6125C319.714 47.7866 317.887 52.748 315.104 54.2278C314.234 54.8371 312.93 55.0112 311.625 55.0112Z" fill="black"/>
<path d="M324.845 71.8975C324.671 71.8975 324.584 71.8105 324.497 71.7234C324.323 71.5493 324.41 71.2882 324.584 71.1141C327.106 69.1992 328.498 65.8916 328.498 65.8045C328.585 65.5434 328.846 65.4563 329.02 65.5434C329.281 65.6304 329.368 65.8916 329.281 66.0656C329.194 66.2397 327.802 69.7214 325.106 71.7234C325.019 71.8975 324.932 71.8975 324.845 71.8975Z" fill="black"/>
<path d="M193.515 83.1258C193.515 83.1258 207.431 83.3869 207.083 71.201C207.17 71.201 194.211 69.9824 193.515 83.1258Z" fill="black"/>
<path d="M219.607 83.1258C219.607 83.1258 206.735 83.1258 206.735 71.201C206.735 71.201 218.912 69.9824 219.607 83.1258Z" fill="black"/>
<path d="M196.646 78.0775C196.56 78.0775 196.56 78.0775 196.473 78.0775C196.212 77.9904 196.125 77.7293 196.212 77.5552C196.299 77.3811 197.516 74.1605 201.604 73.2031C201.865 73.116 202.039 73.2901 202.126 73.5512C202.213 73.8124 202.039 73.9864 201.778 74.0735C198.125 74.9439 196.994 77.8163 196.994 77.8163C196.994 77.9904 196.82 78.0775 196.646 78.0775Z" fill="white"/>
<path d="M571.327 60.4077C571.153 60.4077 570.979 60.3206 570.892 60.1465C569.066 56.1426 564.108 54.5758 564.108 54.5758C563.847 54.4887 563.761 54.2276 563.847 54.0535C563.934 53.7924 564.195 53.7054 564.369 53.7924C564.63 53.8794 569.762 55.5333 571.675 59.8854C571.762 60.1465 571.675 60.3206 571.414 60.4947C571.501 60.4077 571.414 60.4077 571.327 60.4077Z" fill="white"/>
<path d="M462.35 58.2318C462.176 58.2318 462.002 58.1447 461.915 57.9706C461.219 55.8816 458.958 54.4889 458.958 54.4889C458.784 54.4019 458.697 54.0537 458.784 53.8796C458.871 53.7055 459.219 53.6185 459.393 53.7055C459.48 53.7926 461.915 55.2723 462.784 57.6225C462.871 57.8836 462.785 58.0577 462.524 58.1447C462.437 58.2318 462.35 58.2318 462.35 58.2318Z" fill="white"/>
<path d="M517.839 131.086C517.752 131.086 517.578 130.999 517.491 130.912L506.358 118.987C506.184 118.813 506.184 118.552 506.358 118.378C506.532 118.204 506.793 118.204 506.967 118.378L518.1 130.303C518.273 130.477 518.273 130.738 518.1 130.912C518.013 131.086 517.926 131.086 517.839 131.086Z" fill="white"/>
<path d="M502.183 220.131C499.139 220.131 494.965 219.348 489.398 216.998C470.003 208.99 450.173 177.915 444.085 146.232V146.058L455.305 125.69L462.263 147.363C462.263 147.45 466.003 159.636 474.352 172.345C479.136 179.569 484.876 187.751 492.529 192.713C513.403 206.204 512.011 210.556 511.229 212.907C511.142 213.168 511.055 213.429 511.055 213.603C511.055 214.734 510.359 216.998 508.272 218.477C507.054 219.435 505.141 220.131 502.183 220.131ZM445.042 146.232C451.13 177.567 470.699 208.293 489.833 216.214C500.357 220.566 505.488 219.435 507.924 217.781C510.011 216.301 510.359 214.299 510.359 213.69C510.359 213.342 510.446 212.994 510.533 212.732C511.142 210.818 512.446 206.727 492.182 193.583C484.354 188.535 478.527 180.266 473.743 172.954C465.394 160.246 461.654 148.06 461.567 147.799L455.218 128.04L445.042 146.232Z" fill="black"/>
<path d="M34.0065 161.552H76.1016" stroke="#ED1C24" stroke-miterlimit="10" stroke-linecap="round"/>
<path d="M30.7015 186.359H61.3161" stroke="#ED1C24" stroke-miterlimit="10" stroke-linecap="round"/>
<path d="M0.434875 173.302H56.0977" stroke="black" stroke-miterlimit="10" stroke-linecap="round"/>
</g>
<defs>
<linearGradient id="paint0_linear" x1="372.764" y1="378.758" x2="419.539" y2="378.758" gradientUnits="userSpaceOnUse">
<stop stop-color="#DE3129"/>
<stop offset="1" stop-color="#DE2F39"/>
</linearGradient>
<linearGradient id="paint1_linear" x1="176.54" y1="285.095" x2="324.656" y2="285.095" gradientUnits="userSpaceOnUse">
<stop stop-color="#DE3129"/>
<stop offset="1" stop-color="#DE2F39"/>
</linearGradient>
<linearGradient id="paint2_linear" x1="152.547" y1="150.944" x2="232.145" y2="150.944" gradientUnits="userSpaceOnUse">
<stop stop-color="#DE3129"/>
<stop offset="1" stop-color="#DE2F39"/>
</linearGradient>
<linearGradient id="paint3_linear" x1="298.244" y1="85.5549" x2="322.144" y2="85.5549" gradientUnits="userSpaceOnUse">
<stop stop-color="#DE3129"/>
<stop offset="1" stop-color="#DE2F39"/>
</linearGradient>
<linearGradient id="paint4_linear" x1="345.966" y1="241.546" x2="485.172" y2="241.546" gradientUnits="userSpaceOnUse">
<stop stop-color="#DE3129"/>
<stop offset="1" stop-color="#DE2F39"/>
</linearGradient>
<linearGradient id="paint5_linear" x1="608.822" y1="380.209" x2="665.781" y2="380.209" gradientUnits="userSpaceOnUse">
<stop stop-color="#DE3129"/>
<stop offset="1" stop-color="#DE2F39"/>
</linearGradient>
<linearGradient id="paint6_linear" x1="414.836" y1="365.979" x2="453.796" y2="365.979" gradientUnits="userSpaceOnUse">
<stop stop-color="#DE3129"/>
<stop offset="1" stop-color="#DE2F39"/>
</linearGradient>
<linearGradient id="paint7_linear" x1="431.865" y1="66.4698" x2="467.715" y2="66.4698" gradientUnits="userSpaceOnUse">
<stop stop-color="#DE3129"/>
<stop offset="1" stop-color="#DE2F39"/>
</linearGradient>
<linearGradient id="paint8_linear" x1="421.532" y1="79.7264" x2="440.211" y2="79.7264" gradientUnits="userSpaceOnUse">
<stop stop-color="#DE3129"/>
<stop offset="1" stop-color="#DE2F39"/>
</linearGradient>
<linearGradient id="paint9_linear" x1="294.145" y1="98.1594" x2="317.646" y2="98.1594" gradientUnits="userSpaceOnUse">
<stop stop-color="#DE3129"/>
<stop offset="1" stop-color="#DE2F39"/>
</linearGradient>
<linearGradient id="paint10_linear" x1="271.889" y1="177.775" x2="317.835" y2="177.775" gradientUnits="userSpaceOnUse">
<stop stop-color="#DE3129"/>
<stop offset="1" stop-color="#DE2F39"/>
</linearGradient>
<linearGradient id="paint11_linear" x1="294.46" y1="83.4509" x2="302.028" y2="83.4509" gradientUnits="userSpaceOnUse">
<stop stop-color="#DE3129"/>
<stop offset="1" stop-color="#DE2F39"/>
</linearGradient>
<linearGradient id="paint12_linear" x1="64.486" y1="122.689" x2="215.2" y2="122.689" gradientUnits="userSpaceOnUse">
<stop stop-color="#DE3129"/>
<stop offset="1" stop-color="#DE2F39"/>
</linearGradient>
<linearGradient id="paint13_linear" x1="211.743" y1="71.9088" x2="293.061" y2="71.9088" gradientUnits="userSpaceOnUse">
<stop stop-color="#DE3129"/>
<stop offset="1" stop-color="#DE2F39"/>
</linearGradient>
<linearGradient id="paint14_linear" x1="411.522" y1="82.0702" x2="419.019" y2="82.0702" gradientUnits="userSpaceOnUse">
<stop stop-color="#DE3129"/>
<stop offset="1" stop-color="#DE2F39"/>
</linearGradient>
<linearGradient id="paint15_linear" x1="203.211" y1="83.867" x2="207.683" y2="83.867" gradientUnits="userSpaceOnUse">
<stop stop-color="#DE3129"/>
<stop offset="1" stop-color="#DE2F39"/>
</linearGradient>
<linearGradient id="paint16_linear" x1="223.774" y1="378.452" x2="231.239" y2="378.452" gradientUnits="userSpaceOnUse">
<stop stop-color="#DE3129"/>
<stop offset="1" stop-color="#DE2F39"/>
</linearGradient>
<linearGradient id="paint17_linear" x1="230.037" y1="381.156" x2="236.417" y2="381.156" gradientUnits="userSpaceOnUse">
<stop stop-color="#DE3129"/>
<stop offset="1" stop-color="#DE2F39"/>
</linearGradient>
<linearGradient id="paint18_linear" x1="497.88" y1="116.027" x2="537.153" y2="116.027" gradientUnits="userSpaceOnUse">
<stop stop-color="#DE3129"/>
<stop offset="1" stop-color="#DE2F39"/>
</linearGradient>
<linearGradient id="paint19_linear" x1="582.419" y1="117.184" x2="597.718" y2="117.184" gradientUnits="userSpaceOnUse">
<stop stop-color="#DE3129"/>
<stop offset="1" stop-color="#DE2F39"/>
</linearGradient>
<linearGradient id="paint20_linear" x1="453.546" y1="146.27" x2="454.405" y2="146.126" gradientUnits="userSpaceOnUse">
<stop stop-color="#DE3129"/>
<stop offset="1" stop-color="#DE2F39"/>
</linearGradient>
<linearGradient id="paint21_linear" x1="377.084" y1="367.506" x2="404.464" y2="370.799" gradientUnits="userSpaceOnUse">
<stop stop-color="#DE3129"/>
<stop offset="1" stop-color="#DE2F39"/>
</linearGradient>
<linearGradient id="paint22_linear" x1="533.965" y1="180.846" x2="559.389" y2="180.846" gradientUnits="userSpaceOnUse">
<stop stop-color="#DE3129"/>
<stop offset="1" stop-color="#DE2F39"/>
</linearGradient>
<clipPath id="clip0">
<rect width="679" height="395" fill="white"/>
</clipPath>
</defs>
</svg>
