<svg width="225" height="76" viewBox="0 0 225 76" fill="none" xmlns="http://www.w3.org/2000/svg">
<g clip-path="url(#clip0)">
<path d="M58.654 0H5.34597C2.38863 0 0 2.39083 0 5.35091V58.7083C0 61.6304 2.38863 64.0592 5.34597 64.0592H7.62085L18.2749 75.1405C19.109 76.0133 20.5498 75.4441 20.5498 74.2297V64.0592H58.654C61.5735 64.0592 64 61.6683 64 58.7083V5.35091C64 2.39083 61.5735 0 58.654 0Z" fill="url(#paint0_linear)"/>
<path d="M31.2417 10.8536L27.0332 6.64121V12.6752L31.2417 16.8876V10.8536ZM33.2891 8.311L32 5.50272L30.7109 8.311L32 9.67719L33.2891 8.311ZM38.5971 19.7339L32.6824 25.7679V34.1927L38.5971 28.3485V19.7339ZM39.1658 15.0661L41.6303 9.18384L38.2938 10.55V13.2824L34.654 16.9256L39.1658 15.0661ZM29.308 16.9256L25.6682 13.2824V10.2844L22.1801 8.84229L24.7962 15.0661L29.308 16.9256ZM31.2796 25.7679L25.3649 19.7339V28.3485L31.2796 34.1927V25.7679ZM37.8768 18.5195H26.0853L32 24.5535L37.8768 18.5195ZM47.9241 29.2972H39.545L33.6682 35.1415H42.0474L47.9241 29.2972ZM39.9621 19.3544V27.969H48.5687L39.9621 19.3544ZM32.7204 16.8497L36.9289 12.6373V6.64121L32.7204 10.8536V16.8497ZM43.2606 35.8246L49.2891 41.7447V29.9044L43.2606 35.8246ZM39.9621 52.2948L48.5308 43.7181H39.9621V52.2948ZM21.9526 36.5077L16.0379 42.3519H24.3791L30.2938 36.5077H21.9526ZM24 52.2948V43.7181H15.4313L24 52.2948ZM14.7109 29.9044V41.7447L20.7014 35.8246L14.7109 29.9044ZM31.2796 37.4944L25.3649 43.3386V51.9153L31.2796 45.8812V37.4944ZM26.0853 53.1296H37.8768L32 47.1336L26.0853 53.1296ZM32.6824 45.8812L38.5971 51.9153V43.3386L32.6824 37.4944V45.8812ZM24 19.3544L15.3933 27.931H24V19.3544ZM16.0379 29.2972L21.9526 35.1415H30.3317L24.417 29.2972H16.0379ZM42.0095 36.5077H33.6682L39.5829 42.3519H47.9241L42.0095 36.5077Z" fill="white"/>
</g>
<g clip-path="url(#clip1)">
<path d="M170.02 49.9983C167.986 49.7731 166.529 47.9471 166.529 45.9209V41.3682C166.529 39.3421 168.011 37.516 170.02 37.2909C171.954 37.0657 173.637 38.2664 174.214 39.9674C174.415 40.5928 174.993 41.018 175.646 41.018C176.651 41.018 177.379 40.0425 177.078 39.0919C176.123 36.1652 173.285 34.089 169.97 34.3141C166.278 34.5893 163.54 37.7662 163.54 41.4183V45.8459C163.54 49.498 166.303 52.6998 169.945 52.95C173.26 53.2001 176.123 51.1239 177.053 48.1722C177.354 47.2217 176.626 46.2461 175.621 46.2461C174.968 46.2461 174.39 46.6713 174.189 47.2967C173.637 49.0227 171.954 50.1984 170.02 49.9983Z" fill="#010101"/>
<path d="M186.722 37.2659C188.908 37.2659 190.666 39.0169 190.666 41.1931V46.071C190.666 48.2472 188.908 49.9983 186.722 49.9983C184.537 49.9983 182.779 48.2472 182.779 46.071V41.1931C182.779 39.0419 184.562 37.2659 186.722 37.2659ZM186.722 34.2891C182.905 34.2891 179.79 37.3909 179.79 41.1931V46.071C179.79 49.8732 182.905 52.975 186.722 52.975C190.54 52.975 193.655 49.8732 193.655 46.071V41.1931C193.655 37.3909 190.565 34.2891 186.722 34.2891Z" fill="#010101"/>
<path d="M102.758 22.1321C103.461 22.1321 104.064 22.6073 104.24 23.2827C104.29 23.4578 104.341 23.6579 104.416 23.808C104.617 24.3083 104.893 24.7586 105.245 25.1088C105.596 25.484 105.998 25.7592 106.45 25.9593C106.902 26.1594 107.405 26.2595 107.982 26.2595C108.485 26.2595 108.937 26.2094 109.389 26.1094C109.816 26.0093 110.218 25.8592 110.569 25.6341C110.921 25.409 111.172 25.1088 111.398 24.7586C111.599 24.4084 111.7 23.9831 111.7 23.4828C111.7 23.1076 111.574 22.7574 111.348 22.4823C111.122 22.1821 110.821 21.9319 110.444 21.7318C110.067 21.5317 109.64 21.3316 109.163 21.1565C108.686 20.9814 108.208 20.8313 107.706 20.7062C106.978 20.4811 106.224 20.2309 105.496 19.9808C104.767 19.7056 104.114 19.3805 103.512 18.9552C102.909 18.53 102.432 18.0047 102.055 17.3543C101.678 16.7039 101.502 15.9034 101.502 14.9279C101.502 14.1274 101.653 13.402 101.954 12.8016C102.281 12.2013 102.708 11.676 103.261 11.2507C103.813 10.8255 104.466 10.5253 105.245 10.3002C105.998 10.1001 106.852 10 107.781 10C108.987 10 110.017 10.2001 110.821 10.6003C111.649 11.0006 112.302 11.5009 112.805 12.1012C113.307 12.7266 113.659 13.402 113.91 14.1274C113.935 14.2024 113.96 14.2525 113.96 14.3275C114.236 15.3031 113.483 16.2787 112.478 16.2787C111.8 16.2787 111.197 15.8284 110.996 15.178C110.821 14.5526 110.519 14.0774 110.092 13.6771C109.439 13.1018 108.686 12.8016 107.781 12.8016C107.38 12.8016 106.978 12.8517 106.601 12.9267C106.224 13.0017 105.873 13.1268 105.571 13.3019C105.27 13.477 105.019 13.6771 104.843 13.9523C104.667 14.2275 104.567 14.5526 104.567 14.9279C104.567 15.3281 104.692 15.6783 104.918 15.9535C105.144 16.2536 105.446 16.5038 105.847 16.7289C106.224 16.954 106.676 17.1542 107.154 17.3293C107.631 17.5044 108.133 17.6545 108.635 17.8045C109.364 18.0297 110.092 18.2798 110.821 18.555C111.549 18.8301 112.202 19.1803 112.805 19.6306C113.382 20.0558 113.885 20.5812 114.236 21.2065C114.613 21.8319 114.789 22.5823 114.789 23.4828C114.789 24.4084 114.613 25.2339 114.287 25.9343C113.96 26.6347 113.483 27.21 112.88 27.6853C112.277 28.1606 111.549 28.5108 110.72 28.7609C109.891 29.0111 108.987 29.1361 108.033 29.1361C107.154 29.1361 106.3 28.986 105.471 28.6608C104.642 28.3357 103.914 27.8604 103.261 27.26C102.607 26.6347 102.08 25.9093 101.678 25.0588C101.553 24.7586 101.427 24.4584 101.327 24.1332C101 23.1326 101.728 22.1321 102.758 22.1321Z" fill="#010101"/>
<path d="M126.744 12.0262L132.094 26.6347C132.446 27.6102 131.717 28.6609 130.663 28.6609C130.035 28.6609 129.457 28.2606 129.231 27.6603L127.699 23.4578H121.294L119.762 27.6603C119.536 28.2606 118.983 28.6609 118.33 28.6609H118.28C117.225 28.6609 116.497 27.6102 116.874 26.6347L122.274 12.0262C122.625 11.1006 123.504 10.4753 124.509 10.4753C125.514 10.4753 126.393 11.1006 126.744 12.0262ZM124.484 14.6277L122.299 20.6562H126.669L124.484 14.6277Z" fill="#010101"/>
<path d="M137.971 11.9762V27.16C137.971 27.9855 137.293 28.6609 136.464 28.6609C135.636 28.6609 134.957 27.9855 134.957 27.16V11.9762C134.957 11.1507 135.636 10.4753 136.464 10.4753C137.293 10.4753 137.971 11.1507 137.971 11.9762Z" fill="#010101"/>
<path d="M144.904 11.5509L151.936 23.4578V12.0012C151.936 11.1507 152.614 10.4753 153.468 10.4753C154.322 10.4753 155 11.1507 155 12.0012V26.5096C155 27.7103 154.021 28.6859 152.815 28.6859C152.037 28.6859 151.333 28.2856 150.932 27.6102L143.899 15.7033V27.16C143.899 28.0105 143.221 28.6859 142.367 28.6859C141.513 28.6859 140.835 28.0105 140.835 27.16V12.6515C140.835 11.4508 141.814 10.4753 143.02 10.4753C143.798 10.4753 144.502 10.8755 144.904 11.5509Z" fill="#010101"/>
<path d="M171.753 11.9261C171.753 12.7266 171.1 13.377 170.296 13.377H166.102V27.16C166.102 28.0105 165.424 28.6859 164.57 28.6859C163.716 28.6859 163.038 28.0105 163.038 27.16V13.3519H158.843C158.04 13.3519 157.386 12.7016 157.386 11.9011C157.386 11.1006 158.04 10.4503 158.843 10.4503H170.296C171.1 10.4753 171.753 11.1256 171.753 11.9261Z" fill="#010101"/>
<path d="M182.076 11.5259C182.076 10.9506 182.553 10.4753 183.131 10.4753H189.134C190.063 10.4753 190.892 10.6254 191.62 10.9506C192.349 11.2757 192.951 11.701 193.429 12.2263C193.906 12.7516 194.283 13.3269 194.534 13.9773C194.785 14.6277 194.91 15.2781 194.91 15.9285C194.91 16.6289 194.785 17.3043 194.534 17.9546C194.283 18.605 193.906 19.1803 193.403 19.7056C192.901 20.2059 192.298 20.6312 191.595 20.9314C190.867 21.2315 190.063 21.3816 189.134 21.3816H185.115V27.135C185.115 27.9855 184.437 28.6609 183.583 28.6609C182.729 28.6609 182.051 27.9855 182.051 27.135V11.5259H182.076ZM185.115 18.555H189.134C189.51 18.555 189.837 18.4799 190.163 18.3549C190.49 18.2048 190.766 18.0297 191.017 17.7795C191.269 17.5544 191.47 17.2542 191.62 16.929C191.771 16.6038 191.846 16.2536 191.846 15.9034C191.846 15.178 191.595 14.5527 191.093 14.0774C190.59 13.6021 189.937 13.352 189.134 13.352H185.115V18.555Z" fill="#010101"/>
<path d="M114.337 40.0175C114.337 40.7679 114.186 41.4933 113.885 42.2187C113.583 42.9191 113.156 43.5445 112.604 44.0698C112.93 44.2699 113.207 44.47 113.408 44.7202C113.608 44.9703 113.759 45.2455 113.86 45.5457C113.96 45.8458 114.035 46.171 114.061 46.4962C114.086 46.8214 114.111 47.1716 114.111 47.5468V50.1233C114.111 50.4235 114.186 50.7987 114.362 51.274V51.299C114.613 51.9994 114.111 52.7499 113.332 52.7499H112.328C111.901 52.7499 111.499 52.4997 111.348 52.1245C111.248 51.8743 111.172 51.6242 111.147 51.3741C111.072 50.8988 111.047 50.5236 111.047 50.2234V47.5218C111.047 47.2717 110.996 47.0215 110.921 46.7964C110.821 46.5463 110.695 46.3211 110.494 46.146C110.293 45.9459 110.042 45.7958 109.715 45.6707C109.389 45.5457 109.012 45.4956 108.56 45.4956H104.064V51.249C104.064 52.0995 103.386 52.7749 102.532 52.7749C101.678 52.7749 101 52.0995 101 51.249V35.6399C101 35.0646 101.477 34.5893 102.055 34.5893H108.585C109.514 34.5893 110.343 34.7394 111.047 35.0646C111.75 35.3898 112.353 35.815 112.855 36.3403C113.357 36.8656 113.709 37.441 113.96 38.0913C114.211 38.7167 114.337 39.3671 114.337 40.0175ZM104.064 42.619H108.61C108.987 42.619 109.339 42.5439 109.64 42.4189C109.967 42.2688 110.243 42.0937 110.494 41.8435C110.745 41.6184 110.921 41.3182 111.072 40.993C111.222 40.6678 111.273 40.3176 111.273 39.9674C111.273 39.242 111.021 38.6166 110.519 38.1414C110.017 37.6661 109.364 37.4159 108.585 37.4159H104.064V42.619Z" fill="#010101"/>
<path d="M118.506 34.2891C119.36 34.2891 120.038 34.9645 120.038 35.815V46.3461C120.038 46.9465 120.139 47.4718 120.365 47.9471C120.591 48.4223 120.867 48.8226 121.219 49.1478C121.57 49.473 121.972 49.7231 122.399 49.8982C122.826 50.0733 123.278 50.1483 123.756 50.1483C124.258 50.1483 124.735 50.0733 125.212 49.9232C125.689 49.7731 126.116 49.523 126.493 49.2228C126.87 48.8976 127.196 48.5224 127.423 48.0471C127.649 47.5718 127.774 47.0465 127.774 46.3962V35.815C127.774 34.9645 128.452 34.2891 129.306 34.2891C130.16 34.2891 130.838 34.9645 130.838 35.815V46.2711C130.838 47.3467 130.637 48.3223 130.21 49.1478C129.783 49.9732 129.256 50.6736 128.578 51.249C127.9 51.8243 127.146 52.2496 126.317 52.5497C125.463 52.8499 124.635 53 123.781 53C122.977 53 122.173 52.8499 121.344 52.5748C120.541 52.2746 119.812 51.8493 119.159 51.299C118.506 50.7237 117.979 50.0233 117.577 49.1728C117.175 48.3223 116.974 47.3467 116.974 46.2461V35.84C116.974 34.9645 117.652 34.2891 118.506 34.2891Z" fill="#010101"/>
<path d="M133.25 35.5899C133.25 35.0146 133.727 34.5393 134.304 34.5393H140.458C141.312 34.5393 142.065 34.6643 142.718 34.9145C143.371 35.1646 143.924 35.4898 144.401 35.9151C144.853 36.3403 145.205 36.8156 145.456 37.3659C145.707 37.9162 145.833 38.5166 145.833 39.142C145.833 39.8674 145.682 40.5678 145.381 41.2182C145.079 41.8685 144.627 42.4439 144.024 42.9692C144.577 43.2193 145.029 43.4945 145.381 43.7947C145.732 44.0948 146.034 44.445 146.235 44.8203C146.436 45.1955 146.586 45.5957 146.687 46.021C146.762 46.4462 146.812 46.8965 146.812 47.3467C146.812 48.0721 146.662 48.7726 146.36 49.4229C146.059 50.0733 145.632 50.6486 145.13 51.1489C144.502 51.7493 143.748 52.1745 142.919 52.4747C142.392 52.6498 141.839 52.7249 141.287 52.7249H134.33C133.752 52.7249 133.275 52.2496 133.275 51.6742V35.5899H133.25ZM136.289 41.6934H140.056C140.483 41.6934 140.86 41.6434 141.211 41.5183C141.563 41.3933 141.864 41.2182 142.116 41.018C142.367 40.8179 142.568 40.5678 142.718 40.2926C142.869 40.0175 142.919 39.7173 142.919 39.3921C142.919 38.8418 142.718 38.3665 142.317 37.9913C141.915 37.6161 141.287 37.441 140.383 37.441H136.289V41.6934ZM136.289 49.8732H140.483C140.86 49.8732 141.262 49.8232 141.638 49.7231C142.015 49.623 142.367 49.473 142.693 49.2478C143.02 49.0477 143.271 48.7726 143.447 48.4474C143.648 48.1222 143.748 47.7219 143.748 47.2717C143.748 46.5212 143.397 45.8709 142.718 45.3205C142.015 44.7702 141.061 44.4951 139.83 44.4951H136.289V49.8732Z" fill="#010101"/>
<path d="M154.925 42.4689L159.32 35.2147C159.572 34.7894 160.024 34.5393 160.526 34.5393C161.606 34.5393 162.284 35.715 161.732 36.6655L156.407 45.4706V51.224C156.407 52.0495 155.729 52.7249 154.9 52.7249C154.071 52.7249 153.393 52.0495 153.393 51.224V45.4706L148.068 36.6655C147.516 35.74 148.169 34.5393 149.274 34.5393H149.299C149.776 34.5393 150.253 34.7894 150.505 35.2147L154.925 42.4689Z" fill="#010101"/>
<path d="M200.16 35.6149L207.192 47.5218V36.0652C207.192 35.2147 207.871 34.5393 208.725 34.5393C209.578 34.5393 210.257 35.2147 210.257 36.0652V50.5736C210.257 51.7743 209.277 52.7499 208.071 52.7499C207.293 52.7499 206.59 52.3496 206.188 51.6742L199.155 39.7673V51.224C199.155 52.0745 198.477 52.7499 197.623 52.7499C196.769 52.7499 196.091 52.0745 196.091 51.224V36.7155C196.091 35.5148 197.07 34.5393 198.276 34.5393C199.055 34.5393 199.783 34.9395 200.16 35.6149Z" fill="#010101"/>
<path d="M225 35.9901C225 36.7906 224.347 37.4409 223.543 37.4409H215.707V41.9436H222.313C223.116 41.9436 223.769 42.5939 223.769 43.3944C223.769 44.1949 223.116 44.8452 222.313 44.8452H215.707V51.249C215.707 52.0995 215.029 52.7749 214.175 52.7749C213.321 52.7749 212.643 52.0995 212.643 51.249V35.6399C212.643 35.0646 213.12 34.5893 213.698 34.5893H223.518C224.347 34.5393 225 35.1896 225 35.9901Z" fill="#010101"/>
</g>
<defs>
<linearGradient id="paint0_linear" x1="1.56538" y1="1.5671" x2="62.4726" y2="62.418" gradientUnits="userSpaceOnUse">
<stop stop-color="#DF3129"/>
<stop offset="1" stop-color="#DF2F39"/>
</linearGradient>
<clipPath id="clip0">
<rect width="64" height="75.52" fill="white"/>
</clipPath>
<clipPath id="clip1">
<rect width="124" height="43" fill="white" transform="translate(101 10)"/>
</clipPath>
</defs>
</svg>
