<svg width="904" height="507" viewBox="0 0 904 507" fill="none" xmlns="http://www.w3.org/2000/svg">
<g clip-path="url(#clip0)">
<path d="M636.5 359.6L636.3 423.8C577.3 423.9 563.3 423.8 559.4 423.8C556.1 423.8 559.8 423.7 549.9 423.8H532C528.2 423.8 525.2 420.8 525.2 417C525.2 413.2 528.2 410.2 532 410.2H548.8V409.3H523.5C519 409.3 515.3 405.8 515.3 401.6C515.3 397 518.4 393.2 524.2 393.2H548.8V391.7H517.2C512.7 391.7 509 388.2 509 383.8C509 379.1 511.7 375.3 517.9 375.3H522.6C518.1 375.3 514.4 371.9 514.4 367.8C514.4 363.3 518.4 359.6 523.3 359.6H636.5Z" fill="url(#paint0_linear)"/>
<path d="M559.3 423.8H549.8C559.7 423.7 556 423.7 559.3 423.8Z" fill="url(#paint1_linear)"/>
<path d="M480.1 62.8C497.442 62.8 511.5 48.7417 511.5 31.4C511.5 14.0583 497.442 0 480.1 0C462.758 0 448.7 14.0583 448.7 31.4C448.7 48.7417 462.758 62.8 480.1 62.8Z" fill="url(#paint2_linear)"/>
<path d="M481.6 145H391.8L404.1 100L406.3 100.6L394.7 142.8H478.7L469.4 105.3L471.6 104.8L481.6 145Z" fill="black"/>
<path d="M626.2 153.6L627.7 117L692.1 108.5L703.3 150.3C681.2 170.7 646.5 175.5 626.2 153.6Z" fill="url(#paint3_linear)"/>
<path d="M322.4 428C321.5 428 320.9 428 320.8 428H314.4C313.8 428 313.3 427.5 313.3 426.9C313.3 426.3 313.8 425.8 314.4 425.8H320.9C323 425.9 328.8 425.8 331.1 423.8C331.7 423.2 332.1 422.6 332.1 421.8C332.3 419.3 331.6 417.4 330.3 416.2C328.6 414.6 326.1 414.2 324.3 414.1C323 414.2 322.1 414.2 322 414.2L321.9 412C322 412 322.9 411.9 324.2 411.9C326.8 411.7 331.3 411 333.9 408.6C335.2 407.4 335.8 405.9 335.8 404.1C335.8 401.8 335.1 400 333.6 398.5C331.4 396.4 327.9 395.7 325.5 395.4C323.8 395.4 322.6 395.3 322.5 395.3L322.6 393.1C322.7 393.1 323.9 393 325.6 393.2C328.1 393.1 331.8 392.6 334.2 390.6C335.7 389.3 336.4 387.6 336.4 385.3C336.4 383.1 335.7 381.4 334.2 380C331.6 377.6 327.3 377 324.6 376.8H322.1L322 374.6C322.1 374.6 323.2 374.5 324.8 374.6H365.1C365.2 374.6 369.8 374.9 372.6 372.3C374.1 370.9 374.8 369 374.8 366.4C374.8 359.3 365.6 359.2 365.2 359.2H337.9C337.3 359.2 336.8 358.7 336.8 358.1C336.8 357.5 337.3 357 337.9 357H365.2C369.3 357 377.1 359 377.1 366.4C377.1 369.6 376.1 372.1 374.2 373.9C370.7 377.2 365.3 376.8 365.1 376.8H333.8C334.5 377.2 335.3 377.7 335.9 378.3C337.8 380.1 338.8 382.4 338.8 385.2C338.8 388.1 337.8 390.4 335.9 392.2C334.7 393.3 333.2 394 331.7 394.5C333 395.1 334.3 395.8 335.4 396.8C337.3 398.6 338.3 401.1 338.3 404C338.3 406.4 337.4 408.5 335.7 410.2C334.2 411.7 332.1 412.6 330.1 413.2C330.8 413.6 331.5 414 332.1 414.6C334 416.4 334.8 418.9 334.6 422C334.5 423.4 333.9 424.6 332.8 425.5C330 427.7 325 428 322.4 428Z" fill="black"/>
<path d="M597.1 244V359.6H270.6V244C270.6 244 272.9 137.8 366.4 137.8H501.3C594.8 137.9 597.1 244 597.1 244Z" fill="black"/>
<path d="M741.3 359L636.5 358.9V356.7L739.1 356.8V272.7H741.3V359Z" fill="black"/>
<path d="M562.7 359H549.6V277.8C560 197.7 563.6 184.4 579.5 168.6C595.4 152.7 620.7 148.1 692.3 148.1C793.4 148.1 798 181.3 810.3 270C811.9 281.3 813.5 293 815.5 305.9C815.6 306.5 815.2 307.1 814.6 307.2C814 307.3 813.4 306.9 813.3 306.3C811.3 293.4 809.7 281.7 808.1 270.3C801.9 225.7 797.8 196.2 782.9 177.2C767.8 158.1 741.6 150.3 692.4 150.3C621.6 150.3 596.7 154.8 581.2 170.2C566.5 184.9 562.7 195 551.9 278.1V356.8H562.8C563.4 356.8 563.9 357.3 563.9 357.9C563.9 358.5 563.3 359 562.7 359Z" fill="black"/>
<path d="M69 301.6L151.8 301.5V359.5H331.5V276.4C331.5 267.8 334.6 227 313.9 206.4C298.7 191.2 283.2 172.7 212 172.7C140.9 172.7 115.6 177.4 100 192.9C84.5 208.5 79.5 220.8 69 301.6Z" fill="url(#paint4_linear)"/>
<path d="M439.2 122.9C417.8 122.9 400.4 105.5 400.4 84.1C400.4 62.7 417.8 45.3 439.2 45.3C460.6 45.3 478 62.8 478 84.2C478 105.6 460.6 122.9 439.2 122.9ZM439.2 47.7C419.1 47.7 402.7 64.1 402.7 84.2C402.7 104.3 419.1 120.7 439.2 120.7C459.3 120.7 475.7 104.3 475.7 84.2C475.7 64.1 459.3 47.7 439.2 47.7Z" fill="black"/>
<path d="M218.9 155.7C196.5 155.7 178.3 137.5 178.3 115.1C178.3 92.7 196.5 74.5 218.9 74.5C241.3 74.5 259.5 92.7 259.5 115.1C259.5 137.5 241.3 155.7 218.9 155.7ZM218.9 76.7C197.7 76.7 180.5 93.9 180.5 115.1C180.5 136.3 197.7 153.5 218.9 153.5C240.1 153.5 257.3 136.3 257.3 115.1C257.2 93.9 240 76.7 218.9 76.7Z" fill="black"/>
<path d="M654.9 134.8C676.715 134.8 694.4 117.115 694.4 95.3C694.4 73.4848 676.715 55.8 654.9 55.8C633.085 55.8 615.4 73.4848 615.4 95.3C615.4 117.115 633.085 134.8 654.9 134.8Z" fill="url(#paint5_linear)"/>
<path d="M314.4 427.9H156.6C124.7 427.9 100.8 418.3 85.6 399.3C70.6 380.6 67 356.2 66.6 338.9C66.2 320.3 69.3 305.8 69.4 305.7C69.5 305.1 70.1 304.7 70.7 304.8C71.3 304.9 71.7 305.5 71.6 306.1C71.6 306.2 68.5 320.5 68.9 338.8C69.3 355.7 72.8 379.6 87.4 397.8C102.2 416.2 125.5 425.5 156.6 425.5H314.4C315 425.5 315.5 426 315.5 426.6C315.5 427.2 315.1 427.9 314.4 427.9Z" fill="black"/>
<path d="M728.2 427.9H638.2V425.7H728.2C759.4 425.7 782.7 416.4 797.4 398C825.4 363.1 813.3 306.9 813.2 306.3L815.4 305.8C815.4 305.9 818.6 320.4 818.2 339C817.8 356.2 814.2 380.7 799.2 399.4C784 418.3 760.1 427.9 728.2 427.9Z" fill="black"/>
<path d="M403.6 68.7H474.8C474.8 68.7 468.8 44.5 439.2 44.5C411.9 44.5 403.6 68.7 403.6 68.7Z" fill="url(#paint6_linear)"/>
<path d="M399.3 92.3C395.3 92.3 392.3 90.1 390.9 87.6C389.2 84.5 389.8 80.9 392.4 78.4C394.1 76.8 396.2 76.2 398.4 76.7C400.4 77.1 402.1 78.5 402.7 80L400.6 80.8C400.3 80.1 399.3 79.2 397.9 78.9C396.9 78.7 395.4 78.7 393.9 80.1C392 81.9 391.6 84.4 392.8 86.6C394.1 88.9 397.2 90.8 401.4 89.8L402 92C401.1 92.2 400.2 92.3 399.3 92.3Z" fill="black"/>
<path d="M210.3 194.1C176.7 194.1 168.1 175.3 167.7 174.5L167.6 174.2L178 125.6C173.5 126 170.1 123.7 168.6 121C166.9 117.9 167.5 114.3 170.1 111.8C171.8 110.2 173.9 109.6 176.1 110.1C178.1 110.5 179.8 111.9 180.4 113.4C180.6 114 180.3 114.6 179.7 114.8C179.1 115 178.5 114.7 178.3 114.1C178 113.4 177 112.5 175.6 112.2C174.6 112 173.1 112 171.6 113.4C169.7 115.2 169.3 117.7 170.5 119.9C171.8 122.2 174.9 124.1 179.1 123.1L180.8 122.7L169.9 173.9C171.2 176.3 180.6 191.8 210.3 191.8C238 191.8 239.6 184 245.6 154.8C246.6 150.1 247.6 144.9 249 139.1C249.1 138.5 249.7 138.1 250.3 138.3C250.9 138.4 251.3 139 251.1 139.6C249.8 145.4 248.7 150.6 247.8 155.3C241.8 184.3 239.8 194.1 210.3 194.1Z" fill="black"/>
<path d="M479.3 92.1C478.4 92.1 477.5 92 476.6 91.8L477.1 89.6C481.3 90.6 484.4 88.7 485.7 86.4C486.9 84.2 486.5 81.7 484.6 79.9C483.2 78.5 481.7 78.5 480.6 78.7C479.2 79 478.2 79.9 477.9 80.6L475.8 79.8C476.4 78.3 478.1 76.9 480.1 76.5C482.3 76 484.4 76.6 486.1 78.2C488.7 80.7 489.3 84.3 487.6 87.4C486.3 89.9 483.3 92.1 479.3 92.1Z" fill="black"/>
<path d="M260 119.3C259.1 119.3 258.2 119.2 257.3 119L257.8 116.8C262 117.8 265.1 115.9 266.4 113.6C267.6 111.4 267.2 108.9 265.3 107.1C263.9 105.7 262.4 105.7 261.3 105.9C259.9 106.2 258.9 107.1 258.6 107.8L256.5 107C257.1 105.5 258.8 104.2 260.8 103.7C263 103.2 265.1 103.8 266.8 105.4C269.4 107.9 270 111.5 268.3 114.6C267 117.1 264 119.3 260 119.3Z" fill="black"/>
<path d="M418.7 79.3C419.97 79.3 421 78.315 421 77.1C421 75.885 419.97 74.9 418.7 74.9C417.43 74.9 416.4 75.885 416.4 77.1C416.4 78.315 417.43 79.3 418.7 79.3Z" fill="black"/>
<path d="M458 79.3C459.215 79.3 460.2 78.315 460.2 77.1C460.2 75.885 459.215 74.9 458 74.9C456.785 74.9 455.8 75.885 455.8 77.1C455.8 78.315 456.785 79.3 458 79.3Z" fill="black"/>
<path d="M472.2 61.9C471.9 61.9 471.6 61.8 471.3 61.6L452.5 47.1C451.9 46.6 451.8 45.7 452.2 45.1C452.7 44.5 453.6 44.4 454.2 44.8L473 59.3C473.6 59.8 473.7 60.7 473.3 61.3C473 61.7 472.6 61.9 472.2 61.9Z" fill="black"/>
<path d="M414.1 127.1L328.1 233.7L331.5 322L477.7 137.9L474.8 129.9L460.8 127.7L414.1 127.1Z" fill="white"/>
<path d="M401.8 140.5L429.9 109C429.9 109 436.2 101.2 442.1 105.8C448.9 111.1 441.1 118.9 441.1 118.9L413.8 150.2C413.8 150.2 422.9 138.3 429.7 144.3C436.5 150.3 426.1 160.1 426.1 160.1C426.1 160.1 434.7 149.2 441.5 155.3C447.6 160.7 437.9 171.2 437.9 171.2C437.9 171.2 444.1 161.4 450.8 168.1C454.4 171.7 446.4 179.9 446.4 179.9L441.4 185.6" fill="white"/>
<path d="M441.3 186.7C441 186.7 440.8 186.6 440.6 186.4C440.1 186 440.1 185.3 440.5 184.8L445.5 179.1C447.4 177.1 452.2 171.1 450 168.9C448.5 167.4 447 166.7 445.4 166.9C443.6 167.1 441.9 168.4 440.7 169.6C439.7 170.9 438.9 171.8 438.8 171.9L437 170.5C437.1 170.4 437.8 169.3 438.9 168.1C440.5 165.9 442.6 162.4 442.4 159.4C442.3 158 441.8 156.9 440.8 156C439.5 154.8 438.1 154.3 436.4 154.5C433.5 154.8 430.7 157 428.9 158.7C427.9 160 427 160.7 426.9 160.8L425.3 159.3C425.4 159.2 426.1 158.3 427.3 157.2C429 155.2 431.1 152 431.1 149C431.1 147.5 430.4 146.2 429.2 145C428 143.9 426.6 143.5 425 143.6C421.7 143.9 418.3 146.9 416.4 148.9L414.8 150.7L413.1 149.3C413.2 149.2 413.8 148.4 414.9 147.3L440.5 118C440.6 117.9 444.2 114.2 444 110.6C443.9 109 443.1 107.7 441.7 106.6C436.8 102.7 431.2 109.5 431.1 109.6L403 141.1C402.6 141.6 401.9 141.6 401.4 141.2C400.9 140.8 400.9 140.1 401.3 139.6L429.4 108.1C431.8 105.2 437.8 100.6 443.1 104.8C445.1 106.4 446.2 108.3 446.3 110.5C446.6 115.2 442.4 119.4 442.2 119.6L422.4 142C423.1 141.8 423.9 141.6 424.6 141.5C426.8 141.3 428.8 141.9 430.5 143.4C432.3 144.9 433.2 146.8 433.2 149C433.2 150.5 432.8 152.1 432.2 153.5C433.4 152.9 434.8 152.4 436.2 152.3C438.4 152.1 440.5 152.8 442.2 154.4C443.7 155.7 444.5 157.4 444.6 159.4C444.7 161.3 444.1 163.3 443.3 165.1C443.9 164.9 444.5 164.7 445.1 164.7C447.4 164.4 449.6 165.3 451.6 167.3C455.8 171.5 448.1 179.7 447.2 180.7L442.3 186.4C441.9 186.6 441.6 186.7 441.3 186.7Z" fill="black"/>
<path d="M226 76.2C226 76.2 226.7 118.2 179.5 117.8C179.4 117.8 176.2 73.6 226 76.2Z" fill="black"/>
<path d="M218.9 76.2C218.9 76.2 227.1 105.4 255.6 100.4C255.5 100.3 244.4 74.7 218.9 76.2Z" fill="black"/>
<path d="M706.2 93.8C706.2 99.2 701.8 103.6 696.4 103.6C691 103.6 686.6 99.2 686.6 93.8C686.6 88.4 691 84 696.4 84C701.6 84 706.2 88.1 706.2 93.8Z" fill="url(#paint7_linear)"/>
<path d="M663 106.1C653.3 106.1 645.4 98.2 645.4 88.5C645.4 78.8 653.3 70.9 663 70.9C672.7 70.9 680.6 78.8 680.6 88.5C680.6 98.2 672.7 106.1 663 106.1ZM663 73.1C654.5 73.1 647.6 80 647.6 88.5C647.6 97 654.5 103.9 663 103.9C671.5 103.9 678.4 97 678.4 88.5C678.4 80 671.5 73.1 663 73.1Z" fill="white"/>
<path d="M447.3 420.5L369.6 342.8L397.4 301.9H501.1L525.6 342.8L447.3 420.5ZM373.9 342.4L447.2 415.7L521.2 342.3L499.1 305.3H399.1L373.9 342.4Z" fill="url(#paint8_linear)"/>
<path d="M523.4 340.9H371.7V344.3H523.4V340.9Z" fill="url(#paint9_linear)"/>
<path d="M445.7 418.8L396.7 304.3L399.8 303L448.8 417.5L445.7 418.8Z" fill="url(#paint10_linear)"/>
<path d="M448.8 418.8L445.7 417.4L498.6 302.9L501.6 304.3L448.8 418.8Z" fill="url(#paint11_linear)"/>
<path d="M416.2 343.7L413.6 341.5L446 302.6L448.6 304.7L416.2 343.7Z" fill="url(#paint12_linear)"/>
<path d="M480.4 343.7L446 304.7L448.5 302.5L482.9 341.5L480.4 343.7Z" fill="url(#paint13_linear)"/>
<path d="M65.2 411.7H33.8C33.2 411.7 32.7 411.2 32.7 410.6C32.7 410 33.2 409.5 33.8 409.5H65.3C65.9 409.5 66.4 410 66.4 410.6C66.4 411.2 65.9 411.7 65.2 411.7Z" fill="black"/>
<path d="M79.1 420.6H47.5C46.9 420.6 46.4 420.1 46.4 419.5C46.4 418.9 46.9 418.4 47.5 418.4H79.1C79.7 418.4 80.2 418.9 80.2 419.5C80.2 420.1 79.7 420.6 79.1 420.6Z" fill="black"/>
<path d="M861.4 383.1H829.9C829.3 383.1 828.8 382.6 828.8 382C828.8 381.4 829.3 380.9 829.9 380.9H861.4C862 380.9 862.5 381.4 862.5 382C862.5 382.6 862 383.1 861.4 383.1Z" fill="black"/>
<path d="M875.2 392.1H843.6C843 392.1 842.5 391.6 842.5 391C842.5 390.4 843 389.9 843.6 389.9H875.2C875.8 389.9 876.3 390.4 876.3 391C876.3 391.6 875.9 392.1 875.2 392.1Z" fill="black"/>
<path d="M94.9 429.6H63.3C62.7 429.6 62.2 429.1 62.2 428.5C62.2 427.9 62.7 427.4 63.3 427.4H94.9C95.5 427.4 96 427.9 96 428.5C96 429.1 95.5 429.6 94.9 429.6Z" fill="black"/>
<path d="M208.3 119.3C209.57 119.3 210.6 118.27 210.6 117C210.6 115.73 209.57 114.7 208.3 114.7C207.03 114.7 206 115.73 206 117C206 118.27 207.03 119.3 208.3 119.3Z" fill="black"/>
<path d="M249.6 113.2C250.815 113.2 251.8 112.215 251.8 111C251.8 109.785 250.815 108.8 249.6 108.8C248.385 108.8 247.4 109.785 247.4 111C247.4 112.215 248.385 113.2 249.6 113.2Z" fill="black"/>
<path d="M235.5 131.3C232.7 131.3 229.6 131 228.7 130.9C227.9 130.8 227.4 130.1 227.4 129.4C227.5 128.6 228.2 128.1 228.9 128.1C232.2 128.4 237.6 128.6 239 128.2C240.8 127.6 242.7 125.7 242.8 123.9C242.8 122.1 240.7 120.9 239 120.2C230 116.6 226.1 101.9 226 101.2C225.8 100.4 226.3 99.7 227 99.5C227.7 99.3 228.5 99.8 228.7 100.5C228.7 100.6 232.4 114.5 240.1 117.5C244.8 119.4 245.7 122 245.7 123.9C245.6 127 242.8 129.8 240.1 130.8C239 131.2 237.3 131.3 235.5 131.3Z" fill="black"/>
<path d="M152.6 302.8C152 302.8 151.5 302.3 151.5 301.7V268.9C151.5 268.3 152 267.8 152.6 267.8C153.2 267.8 153.7 268.3 153.7 268.9V301.7C153.7 302.3 153.2 302.8 152.6 302.8Z" fill="black"/>
<path d="M466.5 500.2C423.3 500.2 358.9 487.6 306.3 477.4C273.7 471 245.5 465.5 227.6 463.9C215.8 462.8 197 462.8 175.3 462.8C101.3 462.5 0 462.4 0 423.3C0 402.6 11.4 387 32.9 378.4C48.9 372 64.6 371.7 65.2 371.7C66.3 371.7 67.2 372.5 67.2 373.6C67.2 374.7 66.4 375.6 65.3 375.6C65.1 375.6 49.6 375.9 34.3 382.1C14.1 390.2 3.9 404 3.9 423.3C3.9 458.5 107 458.6 175.3 458.7C197.1 458.7 216 458.8 227.9 459.9C246.1 461.6 274.3 467.1 307 473.5C359.4 483.7 423.6 496.3 466.4 496.3C470 496.3 473.4 496.2 476.7 496C509 494.2 548.2 485.7 586.1 477.5C625.3 469 665.8 460.2 697.4 459.3C707.1 459 718.8 459 731.2 459C764.2 459 805.2 459.1 837.7 453.3C875 446.7 893.7 433.9 894.8 414.2C896.1 392 884.7 375.2 860.7 364.2C842.5 355.9 823.8 354.2 823.6 354.1C822.5 354 821.7 353.1 821.8 352C821.9 350.9 822.9 350.1 823.9 350.2C824.7 350.3 843.6 352 862.3 360.6C887.5 372.2 900.1 390.8 898.7 414.4C895.7 463.1 800.6 463 731.1 462.9C718.7 462.9 707.1 462.9 697.4 463.2C666.1 464.1 625.8 472.9 586.8 481.3C548.7 489.5 509.4 498.1 476.8 499.9C473.6 500.1 470.1 500.2 466.5 500.2Z" fill="black"/>
<path d="M468.9 506.8C425.8 506.8 361.4 494.2 308.9 484C276.3 477.6 248.1 472.1 230.1 470.5C218.3 469.4 199.5 469.4 177.7 469.3C104 469.2 3.2 469 3.2 430.7C3.2 430.1 3.7 429.6 4.3 429.6C4.9 429.6 5.4 430.1 5.4 430.7C5.4 466.7 109 466.9 177.6 467C199.4 467 218.2 467.1 230.2 468.2C248.3 469.9 276.6 475.4 309.3 481.8C366.1 492.9 436.8 506.7 479.2 504.3C511.6 502.5 550.8 494 588.7 485.8C627.9 477.3 668.3 468.6 699.9 467.6C710 467.3 722.4 467.3 735.4 467.4C768.6 467.5 810 467.7 842.8 462.1C880.7 455.6 899.7 442.7 900.9 422.7C900.9 422.1 901.5 421.6 902.1 421.6C902.7 421.6 903.2 422.2 903.2 422.8C901.9 444 882.3 457.5 843.2 464.3C810.2 470 768.8 469.8 735.5 469.7C722.5 469.6 710.1 469.6 700.1 469.9C668.8 470.9 628.4 479.6 589.3 488C551.3 496.2 512 504.7 479.4 506.6C476 506.7 472.5 506.8 468.9 506.8Z" fill="black"/>
<path d="M690.2 77.7L692.1 86.2C697.5 82.8 701 85.5 701.1 85.2C701.1 85.2 706.9 52.7 681.5 46.5C656.1 40.3 615.4 42 615.4 42C621.6 75.9 651.1 82.8 690.2 77.7Z" fill="black"/>
<path d="M658.5 136C636.8 136 627.2 125.2 626.8 124.8C626.4 124.3 626.4 123.6 626.9 123.2C627.4 122.8 628.1 122.8 628.5 123.3C628.6 123.4 637.9 133.8 658.5 133.8C659.5 133.8 681.5 133.6 691.1 108.2C691.3 107.6 692 107.3 692.5 107.5C693.1 107.7 693.4 108.4 693.2 108.9C687.9 123 678.8 129.6 672 132.7C664.9 135.9 659.1 136 658.5 136Z" fill="black"/>
<path d="M620.6 106.1C610.9 106.1 603 98.2 603 88.5C603 78.8 610.9 70.9 620.6 70.9V73.1C612.1 73.1 605.2 80 605.2 88.5C605.2 97 612.1 103.9 620.6 103.9V106.1Z" fill="black"/>
<path d="M620.6 106.1V103.9C629.1 103.9 636 97 636 88.5C636 80 629.1 73.1 620.6 73.1V70.9C630.3 70.9 638.2 78.8 638.2 88.5C638.2 98.2 630.3 106.1 620.6 106.1Z" fill="white"/>
<path d="M618.3 98.4C619.57 98.4 620.6 97.415 620.6 96.2C620.6 94.985 619.57 94 618.3 94C617.03 94 616 94.985 616 96.2C616 97.415 617.03 98.4 618.3 98.4Z" fill="white"/>
<path d="M657.6 98.4C658.815 98.4 659.8 97.415 659.8 96.2C659.8 94.985 658.815 94 657.6 94C656.385 94 655.4 94.985 655.4 96.2C655.4 97.415 656.385 98.4 657.6 98.4Z" fill="white"/>
<path d="M440.3 72.3C437.6 78.3 430.4 86.8 425.1 91C416.5 97.9 440.3 96.4 440.3 96.4V72.3Z" fill="url(#paint14_linear)"/>
<path d="M644.9 110.8H632.8C630.1 110.8 627.9 108.1 627.9 104.8V104.3L641.6 87.6C642.1 87 643 86.9 643.6 87.4C644.2 87.9 644.3 88.8 643.8 89.4L630.7 105.3C630.9 106.8 631.7 108 632.8 108H644.9C645.7 108 646.3 108.6 646.3 109.4C646.3 110.2 645.7 110.8 644.9 110.8Z" fill="black"/>
<path d="M527.2 376.2C526.6 376.2 526.1 375.7 526.1 375.1C526.1 374.5 526.6 374 527.2 374L568.5 373.9C569.1 373.9 569.6 374.4 569.6 375C569.6 375.6 569.1 376.1 568.5 376.1L527.2 376.2Z" fill="black"/>
<path d="M520.7 393.6C520.1 393.6 519.6 393.1 519.6 392.5C519.6 391.9 520.1 391.4 520.7 391.4L570.2 391.3C570.8 391.3 571.3 391.8 571.3 392.4C571.3 393 570.8 393.5 570.2 393.5L520.7 393.6Z" fill="black"/>
<path d="M565.5 410.7H529.4C528.8 410.7 528.3 410.2 528.3 409.6C528.3 409 528.8 408.5 529.4 408.5H565.5C566.1 408.5 566.6 409 566.6 409.6C566.6 410.2 566.2 410.7 565.5 410.7Z" fill="black"/>
<path d="M462.8 12C462.5 12 462.3 11.9 462.1 11.7C461.6 11.3 461.6 10.6 462 10.1C462.2 9.8 467.9 3.5 479.2 3.5C485.7 3.5 491.3 5.9 491.6 6.1C492.2 6.3 492.4 7 492.2 7.6C492 8.2 491.3 8.4 490.7 8.2C490.6 8.2 485.2 5.8 479.2 5.8C468.9 5.8 463.8 11.6 463.7 11.7C463.4 11.9 463.1 12 462.8 12Z" fill="white"/>
<path d="M195.9 112.5C195.4 112.5 194.9 112.2 194.8 111.6C194.7 111 195 110.4 195.6 110.2C195.8 110.2 212.6 105.7 217.7 88.1C217.9 87.5 218.5 87.2 219.1 87.3C219.7 87.5 220 88.1 219.9 88.7C214.4 107.6 196.4 112.3 196.2 112.4C196.1 112.5 196 112.5 195.9 112.5Z" fill="white"/>
<path d="M701.6 98.4C701.4 98.4 701.3 98.4 701.1 98.3L692.1 94L700.9 87.6C701.4 87.2 702.1 87.3 702.5 87.8C702.9 88.3 702.8 89 702.3 89.4L696.6 93.6L702.2 96.3C702.8 96.6 703 97.2 702.7 97.8C702.5 98.2 702.1 98.4 701.6 98.4Z" fill="black"/>
<path d="M367 372.8C363.6 372.8 360.9 370.1 360.9 366.7C360.9 363.3 363.6 360.6 367 360.6C370.4 360.6 373.1 363.3 373.1 366.7C373.1 370.1 370.4 372.8 367 372.8ZM367 362.8C364.9 362.8 363.2 364.5 363.2 366.6C363.2 368.7 364.9 370.4 367 370.4C369.1 370.4 370.8 368.7 370.8 366.6C370.8 364.5 369.2 362.8 367 362.8Z" fill="black"/>
<path d="M524 373.3C520.6 373.3 517.9 370.6 517.9 367.2C517.9 363.8 520.6 361.1 524 361.1C527.4 361.1 530.1 363.8 530.1 367.2C530.1 370.6 527.3 373.3 524 373.3ZM524 363.3C521.9 363.3 520.2 365 520.2 367.1C520.2 369.2 521.9 370.9 524 370.9C526.1 370.9 527.8 369.2 527.8 367.1C527.8 365 526.1 363.3 524 363.3Z" fill="black"/>
<path d="M518 389.6C514.6 389.6 511.9 386.9 511.9 383.5C511.9 380.1 514.6 377.4 518 377.4C521.4 377.4 524.1 380.1 524.1 383.5C524.1 386.9 521.4 389.6 518 389.6ZM518 379.7C515.9 379.7 514.2 381.4 514.2 383.5C514.2 385.6 515.9 387.3 518 387.3C520.1 387.3 521.8 385.6 521.8 383.5C521.8 381.4 520.1 379.7 518 379.7Z" fill="black"/>
<path d="M524.5 407.3C521.1 407.3 518.4 404.6 518.4 401.2C518.4 397.8 521.1 395.1 524.5 395.1C527.9 395.1 530.6 397.8 530.6 401.2C530.6 404.6 527.8 407.3 524.5 407.3ZM524.5 397.4C522.4 397.4 520.7 399.1 520.7 401.2C520.7 403.3 522.4 405 524.5 405C526.6 405 528.3 403.3 528.3 401.2C528.3 399.1 526.6 397.4 524.5 397.4Z" fill="black"/>
<path d="M532.8 422.1C530 422.1 527.7 419.8 527.7 417C527.7 414.2 530 411.9 532.8 411.9C535.6 411.9 537.9 414.2 537.9 417C537.9 419.8 535.7 422.1 532.8 422.1ZM532.8 414.1C531.2 414.1 529.9 415.4 529.9 417C529.9 418.6 531.2 419.9 532.8 419.9C534.4 419.9 535.7 418.6 535.7 417C535.7 415.4 534.4 414.1 532.8 414.1Z" fill="black"/>
<path d="M437.3 117C434.7 117 432.5 114.8 432.5 112.2C432.5 109.6 434.7 107.4 437.3 107.4C439.9 107.4 442.1 109.6 442.1 112.2C442.1 114.8 439.9 117 437.3 117ZM437.3 109.6C435.9 109.6 434.7 110.7 434.7 112.2C434.7 113.6 435.8 114.8 437.3 114.8C438.8 114.8 439.9 113.7 439.9 112.2C439.8 110.8 438.7 109.6 437.3 109.6Z" fill="black"/>
<path d="M158.6 359.6H137.5C136.9 359.6 136.4 359.1 136.4 358.5C136.4 357.9 136.9 357.4 137.5 357.4H158.6C159.2 357.4 159.7 357.9 159.7 358.5C159.7 359.1 159.2 359.6 158.6 359.6Z" fill="black"/>
<path d="M118.5 288.4H79.1C78.5 288.4 78 287.9 78 287.3C78 286.7 78.5 286.2 79.1 286.2H118.5C119.1 286.2 119.6 286.7 119.6 287.3C119.6 287.9 119.1 288.4 118.5 288.4Z" fill="white"/>
<path d="M135 296.4H76.6C76 296.4 75.5 295.9 75.5 295.3C75.5 294.7 76 294.2 76.6 294.2H135C135.6 294.2 136.1 294.7 136.1 295.3C136.1 295.9 135.6 296.4 135 296.4Z" fill="white"/>
<path d="M643.7 118H638.3C637.7 118 637.2 117.5 637.2 116.9C637.2 116.3 637.7 115.8 638.3 115.8H643.7C644.3 115.8 644.8 116.3 644.8 116.9C644.8 117.5 644.4 118 643.7 118Z" fill="black"/>
<path d="M338.7 168.2C338.6 168.2 338.5 168.2 338.4 168.2L317.3 162C316.7 161.8 316.4 161.2 316.5 160.6C316.7 160 317.3 159.7 317.9 159.8L339 166C339.6 166.2 339.9 166.8 339.8 167.4C339.6 167.9 339.2 168.2 338.7 168.2Z" fill="white"/>
<path d="M527.1 174.9C526.7 174.9 526.4 174.7 526.1 174.4C525.8 173.9 525.9 173.2 526.5 172.9L545.1 161.2C545.6 160.9 546.3 161 546.6 161.6C546.9 162.1 546.8 162.8 546.2 163.1L527.6 174.8C527.5 174.9 527.3 174.9 527.1 174.9Z" fill="white"/>
<path d="M449.8 243.2C449.1 243.2 448.6 242.6 448.7 242L449.8 220C449.8 219.4 450.4 218.9 451 218.9C451.6 218.9 452.1 219.5 452.1 220.1L451 242.1C450.9 242.7 450.4 243.2 449.8 243.2Z" fill="white"/>
<path d="M549.5 266.9C549.1 266.9 548.6 266.6 548.5 266.2L540.3 245.8C540.1 245.2 540.4 244.6 540.9 244.3C541.5 244.1 542.1 244.4 542.4 244.9L550.6 265.3C550.8 265.9 550.5 266.5 550 266.8C549.8 266.8 549.7 266.9 549.5 266.9Z" fill="white"/>
<path d="M579.3 326.4C579.2 326.4 579.2 326.4 579.1 326.4L557.4 322.5C556.8 322.4 556.4 321.8 556.5 321.2C556.6 320.6 557.2 320.2 557.8 320.3L579.5 324.2C580.1 324.3 580.5 324.9 580.4 325.5C580.4 326 579.9 326.4 579.3 326.4Z" fill="white"/>
<path d="M366.6 302.2C366.2 302.2 365.9 302 365.6 301.7C365.3 301.2 365.4 300.5 366 300.2L384.8 288.7C385.3 288.4 386 288.5 386.3 289.1C386.6 289.7 386.5 290.3 385.9 290.6L367.1 302C367 302.1 366.8 302.2 366.6 302.2Z" fill="white"/>
<path d="M701.6 188.9L658.5 169.2L622.6 187.5L625 154.6C625 154 625.6 153.5 626.2 153.6C626.8 153.6 627.3 154.2 627.2 154.8L625.1 183.7L658.4 166.7L699.4 185.5L700.3 152C700.3 151.4 700.8 150.9 701.5 150.9C702.1 150.9 702.6 151.4 702.6 152.1L701.6 188.9Z" fill="black"/>
<path d="M231.6 139.6H229.4C228.8 139.6 228.3 139.1 228.3 138.5C228.3 137.9 228.8 137.4 229.4 137.4H231.6C232.2 137.4 232.7 137.9 232.7 138.5C232.7 139.1 232.3 139.6 231.6 139.6Z" fill="black"/>
<path d="M636.5 359.6L611.6 366.1C585.3 358.5 571 356.2 563.4 350.9C560.1 348.6 557.4 343.7 559.2 340.1C561 336.5 565.2 334.8 569 336.1L636.5 359.6Z" fill="url(#paint15_linear)"/>
<path d="M572 344.6C570.3 344.6 568.7 344 567.3 343C565.7 341.7 564.7 339.9 564.5 337.9C564.4 337.1 564.4 336.4 564.6 335.6C564.7 335 565.3 334.6 565.9 334.7C566.5 334.8 566.9 335.4 566.8 336C566.7 336.5 566.7 337.1 566.7 337.6C566.9 339 567.6 340.3 568.7 341.2C569.8 342.1 571.2 342.5 572.6 342.3C574.6 342.1 576.3 340.8 577 338.9C577.2 338.3 577.9 338 578.4 338.2C579 338.4 579.3 339.1 579.1 339.6C578.1 342.3 575.7 344.1 572.9 344.4C572.6 344.6 572.3 344.6 572 344.6Z" fill="black"/>
</g>
<defs>
<linearGradient id="paint0_linear" x1="509.072" y1="391.727" x2="636.478" y2="391.727" gradientUnits="userSpaceOnUse">
<stop stop-color="#DE3129"/>
<stop offset="1" stop-color="#DE2F39"/>
</linearGradient>
<linearGradient id="paint1_linear" x1="549.816" y1="423.774" x2="559.342" y2="423.774" gradientUnits="userSpaceOnUse">
<stop stop-color="#DE3129"/>
<stop offset="1" stop-color="#DE2F39"/>
</linearGradient>
<linearGradient id="paint2_linear" x1="448.75" y1="31.3935" x2="511.537" y2="31.3935" gradientUnits="userSpaceOnUse">
<stop stop-color="#DE3129"/>
<stop offset="1" stop-color="#DE2F39"/>
</linearGradient>
<linearGradient id="paint3_linear" x1="626.181" y1="138.21" x2="703.346" y2="138.21" gradientUnits="userSpaceOnUse">
<stop stop-color="#DE3129"/>
<stop offset="1" stop-color="#DE2F39"/>
</linearGradient>
<linearGradient id="paint4_linear" x1="68.9929" y1="266.176" x2="331.646" y2="266.176" gradientUnits="userSpaceOnUse">
<stop stop-color="#DE3129"/>
<stop offset="1" stop-color="#DE2F39"/>
</linearGradient>
<linearGradient id="paint5_linear" x1="615.364" y1="95.3316" x2="694.373" y2="95.3316" gradientUnits="userSpaceOnUse">
<stop stop-color="#DE3129"/>
<stop offset="1" stop-color="#DE2F39"/>
</linearGradient>
<linearGradient id="paint6_linear" x1="403.632" y1="56.6416" x2="474.79" y2="56.6416" gradientUnits="userSpaceOnUse">
<stop stop-color="#DE3129"/>
<stop offset="1" stop-color="#DE2F39"/>
</linearGradient>
<linearGradient id="paint7_linear" x1="686.623" y1="93.8087" x2="706.183" y2="93.8087" gradientUnits="userSpaceOnUse">
<stop stop-color="#DE3129"/>
<stop offset="1" stop-color="#DE2F39"/>
</linearGradient>
<linearGradient id="paint8_linear" x1="369.562" y1="361.225" x2="525.516" y2="361.225" gradientUnits="userSpaceOnUse">
<stop stop-color="#DE3129"/>
<stop offset="1" stop-color="#DE2F39"/>
</linearGradient>
<linearGradient id="paint9_linear" x1="371.739" y1="342.607" x2="523.393" y2="342.607" gradientUnits="userSpaceOnUse">
<stop stop-color="#DE3129"/>
<stop offset="1" stop-color="#DE2F39"/>
</linearGradient>
<linearGradient id="paint10_linear" x1="396.684" y1="360.879" x2="448.81" y2="360.879" gradientUnits="userSpaceOnUse">
<stop stop-color="#DE3129"/>
<stop offset="1" stop-color="#DE2F39"/>
</linearGradient>
<linearGradient id="paint11_linear" x1="445.731" y1="360.879" x2="501.638" y2="360.879" gradientUnits="userSpaceOnUse">
<stop stop-color="#DE3129"/>
<stop offset="1" stop-color="#DE2F39"/>
</linearGradient>
<linearGradient id="paint12_linear" x1="413.627" y1="323.117" x2="448.558" y2="323.117" gradientUnits="userSpaceOnUse">
<stop stop-color="#DE3129"/>
<stop offset="1" stop-color="#DE2F39"/>
</linearGradient>
<linearGradient id="paint13_linear" x1="445.998" y1="323.117" x2="482.924" y2="323.117" gradientUnits="userSpaceOnUse">
<stop stop-color="#DE3129"/>
<stop offset="1" stop-color="#DE2F39"/>
</linearGradient>
<linearGradient id="paint14_linear" x1="423.279" y1="84.4596" x2="440.329" y2="84.4596" gradientUnits="userSpaceOnUse">
<stop stop-color="#DE3129"/>
<stop offset="1" stop-color="#DE2F39"/>
</linearGradient>
<linearGradient id="paint15_linear" x1="558.439" y1="350.896" x2="636.67" y2="353.315" gradientUnits="userSpaceOnUse">
<stop stop-color="#DE3129"/>
<stop offset="1" stop-color="#DE2F39"/>
</linearGradient>
<clipPath id="clip0">
<rect width="903.1" height="506.8" fill="white"/>
</clipPath>
</defs>
</svg>
